<svg version="1.1" id="Layer_1" xmlns="http://www.w3.org/2000/svg" xmlns:xlink="http://www.w3.org/1999/xlink" x="0px" y="0px"
	 width="100%" viewBox="0 0 820 312" enable-background="new 0 0 820 312" xml:space="preserve">
<path fill="#0D1117" opacity="1.000000" stroke="none" 
	d="
M532.000000,313.000000 
	C354.705719,313.000000 177.911407,313.000000 1.058561,313.000000 
	C1.058561,209.062027 1.058561,105.124016 1.058561,1.093002 
	C274.210938,1.093002 547.421936,1.093002 820.816467,1.093002 
	C820.816467,104.999741 820.816467,208.999832 820.816467,313.000000 
	C724.790710,313.000000 628.645325,313.000000 532.000000,313.000000 
M195.487335,91.468040 
	C195.329559,91.643341 195.171783,91.818649 195.000870,91.996613 
	C195.000870,91.996613 195.001892,91.982300 195.520782,91.377487 
	C189.629623,81.870010 181.654556,74.549820 171.518539,68.523750 
	C162.781815,63.159897 153.763412,58.554237 142.593674,57.652229 
	C141.554382,57.162479 140.515091,56.672729 138.988190,55.755478 
	C135.251846,49.358868 131.146393,43.557079 121.582619,45.150688 
	C121.330780,45.153412 121.078949,45.156136 119.979446,44.993191 
	C107.629311,45.452068 102.868736,49.116989 100.282463,59.884354 
	C93.316139,62.681988 86.059914,64.969589 80.856621,70.854546 
	C86.963913,68.183411 93.071213,65.512268 99.221077,63.727665 
	C98.824150,67.659401 98.705208,71.650024 97.890968,75.493347 
	C97.573387,76.992393 95.936234,78.661507 94.471970,79.377251 
	C91.108002,81.021553 87.481117,82.127975 83.182487,83.588936 
	C75.375381,88.345535 67.568283,93.102127 59.150116,98.105896 
	C53.360126,105.037025 47.570137,111.968155 41.291016,119.355286 
	C35.317684,129.119583 31.299068,139.574997 29.901539,151.834854 
	C27.893633,166.016342 29.037378,179.826172 34.765713,193.794540 
	C33.851093,195.703766 32.866856,197.583252 32.035694,199.528152 
	C30.026348,204.230026 28.703213,208.921555 32.888725,213.916000 
	C33.584625,214.803329 34.280521,215.690659 34.914219,217.234283 
	C37.906357,222.376678 41.277439,227.174515 47.963112,227.410950 
	C50.913635,227.515274 53.889683,226.897720 57.479454,227.025467 
	C63.625355,231.146194 69.771255,235.266922 75.917152,239.387650 
	C76.212112,238.940384 76.507072,238.493134 76.802032,238.045868 
	C71.012360,233.872009 65.222687,229.698135 60.511612,224.569305 
	C60.883556,224.265564 61.255501,223.961838 61.928097,224.210266 
	C66.599228,222.806793 71.270355,221.403320 76.236320,220.608871 
	C79.814056,223.744919 83.391792,226.880966 87.419144,230.509811 
	C92.233559,233.443298 97.047974,236.376801 102.319679,239.839386 
	C110.899307,242.212250 119.478935,244.585129 128.842300,247.190796 
	C143.889206,248.979309 158.534149,247.816345 173.146576,241.143524 
	C186.236237,235.562637 197.595367,227.717300 206.915268,216.080780 
	C214.028427,216.324463 220.668594,215.565948 224.622284,207.676651 
	C224.893188,207.116776 225.164093,206.556885 225.945740,205.585953 
	C231.896271,194.304169 231.170914,188.267426 222.317535,180.521255 
	C222.089554,179.914932 221.861572,179.308594 222.225067,178.545242 
	C223.105362,173.040131 224.067123,167.545975 224.808823,162.022263 
	C224.995102,160.634949 224.475372,159.152847 224.280106,157.714310 
	C223.974777,157.774216 223.669464,157.834122 223.364151,157.894043 
	C222.794067,164.906189 222.223984,171.918350 220.968170,178.498428 
	C216.726959,175.420181 212.485764,172.341919 208.485641,168.402649 
	C211.632996,156.780258 213.148163,145.015182 211.707733,132.177261 
	C209.471985,124.089127 207.236221,116.000999 204.984772,107.190857 
	C204.263153,106.433960 203.541519,105.677063 202.953522,104.172348 
	C200.677856,100.038689 198.402206,95.905029 195.487335,91.468040 
M322.032227,205.997604 
	C326.315460,205.997604 330.598724,205.997604 335.082581,205.997604 
	C335.082581,183.712662 335.082581,161.873596 335.082581,140.006866 
	C330.262756,140.006866 325.644653,140.006866 320.700500,140.166138 
	C320.618927,140.253418 320.451599,140.384903 320.470032,140.420624 
	C320.573181,140.620728 320.721161,140.797684 321.011292,141.910385 
	C320.958801,162.946106 320.906311,183.981812 320.571716,205.247406 
	C320.752228,205.486404 320.932709,205.725418 322.032227,205.997604 
M591.229370,205.829788 
	C591.322571,205.752914 591.507385,205.634506 591.494385,205.605789 
	C591.400818,205.399506 591.267151,205.211411 590.988647,204.089691 
	C591.041138,183.053970 591.093628,162.018250 591.434937,140.767624 
	C591.281128,140.514099 591.127380,140.260590 590.051575,139.853592 
	C585.628723,139.853592 581.205872,139.853592 577.081909,139.853592 
	C577.081909,162.155472 577.081909,183.987244 577.081909,205.964401 
	C581.938599,205.964401 586.412720,205.964401 591.229370,205.829788 
M660.229736,205.828812 
	C660.322937,205.751068 660.507812,205.630371 660.494690,205.602478 
	C660.398193,205.396545 660.262268,205.209106 659.979004,204.088562 
	C660.032227,188.720520 660.085449,173.352478 660.437073,157.811203 
	C660.492737,157.711578 660.620422,157.565811 660.591309,157.520416 
	C660.473999,157.337219 660.308350,157.184982 659.985474,156.260818 
	C656.637512,144.111923 649.822998,138.032837 637.967041,138.180969 
	C629.139465,138.291260 620.328613,139.738602 611.318481,140.608994 
	C611.318481,162.084503 611.318481,183.927032 611.318481,205.761017 
	C616.040161,205.761017 620.463501,205.761017 625.211304,205.761017 
	C625.211304,203.904541 625.211304,202.273834 625.211304,200.643143 
	C625.211365,186.668213 625.161926,172.692886 625.278320,158.718933 
	C625.291931,157.094818 625.729370,154.619446 626.810486,153.996216 
	C634.483826,149.572861 644.050781,152.183884 645.279053,160.601547 
	C645.612305,162.884735 645.907104,165.198441 645.918152,167.499588 
	C645.979309,180.245178 645.947449,192.991196 645.947449,205.964081 
	C650.956299,205.964081 655.421021,205.964081 660.229736,205.828812 
M301.084930,193.022141 
	C292.718109,192.968521 284.351257,192.914917 275.818878,192.564072 
	C275.553894,192.644562 275.288879,192.725067 274.344147,192.909637 
	C273.966522,192.264160 273.588898,191.618698 273.478668,190.767181 
	C273.365326,190.516632 273.252014,190.266083 272.979065,189.088318 
	C273.032288,181.387299 273.085510,173.686279 273.506226,165.810455 
	C273.732025,165.643417 273.889740,165.426788 274.899170,165.013474 
	C278.063904,165.009033 281.242523,165.173416 284.386353,164.914764 
	C285.597137,164.815155 287.438873,164.009506 287.772278,163.085175 
	C289.140656,159.291428 290.038757,155.328079 291.240417,150.951828 
	C284.896637,150.951828 279.125305,150.951828 273.268555,150.951828 
	C273.268555,143.029068 273.268555,135.469131 273.268555,127.476280 
	C283.251770,127.476280 292.976227,127.476280 302.744019,127.476280 
	C302.744019,122.453796 302.744019,117.871040 302.744019,113.034325 
	C288.029449,113.034325 273.569611,113.034325 258.769928,113.170998 
	C258.677490,113.247879 258.493988,113.365273 258.507263,113.395111 
	C258.598907,113.601196 258.731598,113.789009 259.013123,114.909790 
	C258.959137,144.945602 258.905121,174.981430 258.572174,205.248184 
	C258.751373,205.487350 258.930603,205.726501 260.032867,205.997726 
	C274.226318,205.997726 288.419739,205.997726 302.951050,205.997726 
	C302.951050,201.372192 302.951050,197.262421 302.825653,192.800690 
	C302.555115,192.825958 302.284546,192.851227 301.084930,193.022141 
M678.072266,126.505905 
	C678.072266,153.218124 678.072266,179.930359 678.072266,206.593506 
	C684.079834,206.593506 689.314636,206.593506 695.197021,206.593506 
	C695.197021,197.899750 695.197021,189.524643 695.197021,180.931580 
	C702.168701,180.931580 708.489014,181.074875 714.799988,180.892609 
	C721.566223,180.697174 727.385071,178.184570 731.235046,172.410034 
	C740.064270,159.167389 740.404724,144.778015 736.109436,130.062256 
	C733.359863,120.642258 727.218567,113.406868 717.261047,112.582306 
	C704.433716,111.520119 691.451965,112.323723 678.072327,112.323723 
	C678.072327,116.934349 678.072327,121.222115 678.072266,126.505905 
M779.087219,189.478622 
	C775.590210,192.549805 771.659851,192.921188 767.512939,191.137177 
	C763.217529,189.289246 763.730469,185.185532 763.681519,181.691177 
	C763.509033,169.366150 763.613159,157.037247 763.612488,144.709824 
	C763.612366,142.950882 763.612488,141.191925 763.612488,139.346375 
	C757.398376,139.346375 751.978943,139.346375 746.177124,139.346375 
	C746.177124,155.580673 745.484741,171.564438 746.400085,187.455566 
	C747.109863,199.776794 753.826294,206.892349 764.563904,208.624176 
	C769.844849,209.475906 775.376648,208.771881 780.849670,208.771881 
	C782.384277,216.993942 781.768799,218.094223 772.511719,222.399628 
	C773.927856,225.479782 775.537109,228.515060 776.727661,231.706528 
	C777.818237,234.629868 779.797913,235.210007 782.561584,234.960907 
	C790.554504,234.240524 796.439392,229.111237 797.937256,221.139954 
	C798.516113,218.059647 798.863281,214.890045 798.883545,211.758347 
	C798.979614,196.932739 799.152222,182.101212 798.826660,167.282120 
	C798.673645,160.318497 798.885132,154.004318 806.796936,151.079865 
	C805.520996,147.899857 804.610291,145.240356 803.410461,142.718399 
	C800.635254,136.885117 799.313049,136.564911 793.406006,139.162491 
	C784.849243,142.925278 781.829041,150.077728 781.445862,158.672043 
	C781.149414,165.322281 781.577942,172.004105 781.307922,178.656601 
	C781.169373,182.071594 780.207642,185.453201 779.087219,189.478622 
M549.010498,140.205521 
	C543.486755,139.476273 537.918274,137.903061 532.448547,138.192993 
	C520.962769,138.801819 513.243958,147.093658 512.930420,158.615341 
	C512.640869,169.253525 512.838623,179.908646 512.991760,190.553848 
	C513.090210,197.396103 516.680237,202.336868 522.859863,204.707779 
	C534.802002,209.289536 546.080444,206.755264 556.929688,200.785706 
	C555.024048,196.493256 553.312073,192.636978 551.724609,189.061188 
	C547.204041,190.531387 543.219055,192.103989 539.096069,193.111664 
	C530.042236,195.324448 525.986023,191.401642 527.553589,181.913223 
	C538.341675,181.264023 549.194092,180.610947 559.990662,179.961243 
	C559.990662,172.453705 560.033875,165.479568 559.979248,158.506210 
	C559.917480,150.617920 556.828125,144.429962 549.010498,140.205521 
M404.642395,195.459381 
	C404.529175,182.809937 404.959442,170.125626 404.150330,157.520844 
	C403.336578,144.843369 392.882141,136.860107 380.177032,138.088196 
	C372.189423,138.860291 364.213623,139.754135 356.125488,140.604599 
	C356.125488,161.928345 356.125488,183.802963 356.125488,205.786407 
	C360.818695,205.786407 365.228485,205.786407 370.004517,205.786407 
	C370.004517,203.946747 370.004517,202.321411 370.004517,200.696060 
	C370.004517,186.374954 369.988159,172.053787 370.033813,157.732819 
	C370.037720,156.507767 370.278534,154.289169 370.705078,154.214142 
	C374.800568,153.493896 379.100311,152.265915 383.062653,152.907089 
	C387.403412,153.609512 389.923615,157.376068 389.980682,162.015274 
	C390.099518,171.672226 390.037292,181.331451 390.045776,190.989731 
	C390.050110,195.918381 390.046539,200.847031 390.046539,205.681763 
	C395.213928,205.681763 399.778717,205.681763 404.642365,205.681763 
	C404.642365,202.387695 404.642365,199.414429 404.642395,195.459381 
M424.506775,145.095459 
	C421.549072,149.202316 419.487305,153.338577 420.493805,158.848007 
	C422.356964,169.046906 429.572479,173.063309 438.287628,176.010559 
	C442.296295,177.366180 446.456055,178.948029 449.799286,181.433472 
	C454.292938,184.774185 453.313354,190.763367 448.462433,193.282089 
	C443.787903,195.709244 436.989899,194.095505 433.679565,190.142014 
	C432.753510,189.036011 430.843964,188.149643 429.414185,188.189468 
	C425.978088,188.285172 422.558899,188.989441 419.009003,189.464752 
	C418.928833,195.181580 421.490112,199.570175 425.859406,202.656647 
	C434.475220,208.742889 444.015564,209.367081 453.828674,206.152618 
	C464.166962,202.766113 469.028717,193.917099 467.195312,183.223221 
	C465.773071,174.927505 460.502960,170.236313 453.324829,167.122543 
	C448.953278,165.226242 444.440460,163.657516 440.048798,161.804825 
	C437.246826,160.622772 434.790955,158.405151 436.133484,155.386795 
	C436.875305,153.718979 439.984894,152.191788 442.016693,152.205017 
	C445.945557,152.230576 449.867035,153.391357 453.779846,154.079529 
	C454.761810,151.087601 456.059662,147.854065 456.790741,144.497101 
	C457.032074,143.388962 456.151611,141.240555 455.204895,140.793076 
	C445.974701,136.430069 431.428131,137.187927 424.506775,145.095459 
M492.009918,137.444321 
	C492.009918,129.357452 492.009918,121.270584 492.009918,113.365555 
	C486.674866,113.365555 481.953613,113.365555 477.109833,113.365555 
	C477.109833,138.694687 476.938782,163.653839 477.179688,188.609024 
	C477.306274,201.723755 484.895020,208.145767 497.552368,206.651962 
	C498.789246,203.295700 500.032196,199.922928 501.287292,196.517212 
	C492.825287,194.951660 492.002869,193.942917 492.005524,185.397263 
	C492.008850,174.643875 492.006287,163.890488 492.006287,153.005020 
	C494.776459,153.005020 496.947266,153.160797 499.077454,152.934372 
	C500.034821,152.832611 501.526917,152.134232 501.721039,151.419846 
	C502.744843,147.651382 503.432098,143.791504 504.204254,140.115265 
	C499.884064,139.519424 495.966431,138.979111 492.009918,137.444321 
M576.234253,119.581917 
	C576.492615,120.534416 576.671753,121.517319 577.023193,122.434120 
	C578.475708,126.223312 581.632263,128.314499 585.166016,126.958221 
	C587.772827,125.957687 590.856140,123.021004 591.299988,120.516830 
	C591.690857,118.311768 589.288330,114.714340 587.104065,113.144699 
	C583.075134,110.249451 578.798157,112.822006 576.234253,119.581917 
M322.250946,123.984856 
	C326.157440,127.746590 329.967438,128.455566 333.127655,125.807426 
	C336.304779,123.145157 337.003540,119.750214 335.088409,116.090691 
	C333.184296,112.452126 329.116852,111.286423 325.395599,113.037872 
	C321.177429,115.023216 320.204773,117.889389 322.250946,123.984856 
z"/>
<path fill="#0F1219" opacity="1.000000" stroke="none" 
	d="
M202.819901,104.920166 
	C203.541519,105.677063 204.263153,106.433960 204.731979,107.816620 
	C206.278580,116.638168 208.077972,124.833954 209.856079,133.495697 
	C209.882690,138.270508 210.509323,142.670593 209.847519,146.867538 
	C208.762299,153.749771 206.840240,160.500031 204.923218,167.144623 
	C195.035263,162.594742 185.495178,158.206207 175.837311,153.632492 
	C175.512772,153.224182 175.260513,153.081161 174.625946,152.994354 
	C173.842880,152.913681 173.396637,152.856903 172.831787,152.618286 
	C172.505783,152.218124 172.254395,152.079590 171.629822,152.001068 
	C170.865723,151.920486 170.430817,151.859680 169.958038,151.531418 
	C169.295456,151.144760 168.670761,151.025558 167.701599,150.902176 
	C166.903320,150.832016 166.449463,150.766052 165.953735,150.445129 
	C165.299469,150.075378 164.687088,149.960602 163.726135,149.853058 
	C162.916885,149.804214 162.456177,149.748138 161.950821,149.433517 
	C161.282028,149.093567 160.657898,149.012146 159.691376,148.927597 
	C158.896027,148.871628 158.443069,148.818787 157.902222,148.430664 
	C155.913712,147.977173 154.013092,147.858963 151.837189,147.807404 
	C151.373535,147.861267 151.185150,147.848465 150.942551,147.529663 
	C149.935532,147.131744 148.982742,147.039795 147.597946,146.941956 
	C145.451340,146.816132 143.736725,146.696167 142.029968,146.218719 
	C142.679138,142.539520 143.320465,139.217834 144.016388,135.514130 
	C144.373047,133.837601 144.689911,132.546326 144.974915,131.248062 
	C148.328293,115.973358 148.069870,100.539864 147.336060,85.177643 
	C165.367889,92.005539 178.174728,104.713699 189.207077,119.654594 
	C184.578445,109.520782 177.518341,101.359085 168.767563,95.106194 
	C161.996994,90.268280 154.134674,86.958221 146.554764,82.640198 
	C144.059830,73.601967 141.767807,64.892471 139.475800,56.182980 
	C140.515091,56.672729 141.554382,57.162479 143.023743,58.156097 
	C143.933990,59.059746 144.352005,59.613625 144.903671,59.836246 
	C153.504028,63.306850 162.121704,66.734619 170.948334,70.435867 
	C177.511353,76.256752 183.875519,81.798088 190.201935,87.382179 
	C191.862015,88.847473 193.405075,90.445328 195.001892,91.982300 
	C195.001892,91.982300 195.000870,91.996613 194.854248,92.247177 
	C194.778046,92.681198 194.848450,92.864639 195.015045,93.382935 
	C197.680771,97.451912 200.250336,101.186035 202.819901,104.920166 
z"/>
<path fill="#42A7A7" opacity="1.000000" stroke="none" 
	d="
M678.072266,126.007889 
	C678.072327,121.222115 678.072327,116.934349 678.072327,112.323723 
	C691.451965,112.323723 704.433716,111.520119 717.261047,112.582306 
	C727.218567,113.406868 733.359863,120.642258 736.109436,130.062256 
	C740.404724,144.778015 740.064270,159.167389 731.235046,172.410034 
	C727.385071,178.184570 721.566223,180.697174 714.799988,180.892609 
	C708.489014,181.074875 702.168701,180.931580 695.197021,180.931580 
	C695.197021,189.524643 695.197021,197.899750 695.197021,206.593506 
	C689.314636,206.593506 684.079834,206.593506 678.072266,206.593506 
	C678.072266,179.930359 678.072266,153.218124 678.072266,126.007889 
M707.231323,128.927841 
	C703.297546,128.927841 699.363770,128.927841 695.303345,128.927841 
	C695.303345,141.276810 695.303345,152.959381 695.303345,165.037430 
	C699.467041,165.037430 703.292236,165.353714 707.046387,164.972137 
	C715.069946,164.156586 719.506775,160.489014 720.862244,153.803024 
	C721.351624,151.388901 721.645020,148.845001 721.467590,146.401001 
	C720.619019,134.715149 720.081482,130.273956 707.231323,128.927841 
z"/>
<path fill="#42A7A7" opacity="1.000000" stroke="none" 
	d="
M779.352539,189.164261 
	C780.207642,185.453201 781.169373,182.071594 781.307922,178.656601 
	C781.577942,172.004105 781.149414,165.322281 781.445862,158.672043 
	C781.829041,150.077728 784.849243,142.925278 793.406006,139.162491 
	C799.313049,136.564911 800.635254,136.885117 803.410461,142.718399 
	C804.610291,145.240356 805.520996,147.899857 806.796936,151.079865 
	C798.885132,154.004318 798.673645,160.318497 798.826660,167.282120 
	C799.152222,182.101212 798.979614,196.932739 798.883545,211.758347 
	C798.863281,214.890045 798.516113,218.059647 797.937256,221.139954 
	C796.439392,229.111237 790.554504,234.240524 782.561584,234.960907 
	C779.797913,235.210007 777.818237,234.629868 776.727661,231.706528 
	C775.537109,228.515060 773.927856,225.479782 772.511719,222.399628 
	C781.768799,218.094223 782.384277,216.993942 780.849670,208.771881 
	C775.376648,208.771881 769.844849,209.475906 764.563904,208.624176 
	C753.826294,206.892349 747.109863,199.776794 746.400085,187.455566 
	C745.484741,171.564438 746.177124,155.580673 746.177124,139.346375 
	C751.978943,139.346375 757.398376,139.346375 763.612488,139.346375 
	C763.612488,141.191925 763.612366,142.950882 763.612488,144.709824 
	C763.613159,157.037247 763.509033,169.366150 763.681519,181.691177 
	C763.730469,185.185532 763.217529,189.289246 767.512939,191.137177 
	C771.659851,192.921188 775.590210,192.549805 779.352539,189.164261 
z"/>
<path fill="#FEFEFE" opacity="1.000000" stroke="none" 
	d="
M275.984436,192.861298 
	C284.351257,192.914917 292.718109,192.968521 301.779510,193.032684 
	C302.474091,193.043243 302.951050,193.152634 302.951050,193.152634 
	C302.951050,197.262421 302.951050,201.372192 302.951050,205.997726 
	C288.419739,205.997726 274.226318,205.997726 259.514465,205.742462 
	C258.996063,205.487198 258.851135,205.017242 258.851135,205.017242 
	C258.905121,174.981430 258.959137,144.945602 259.004639,114.211273 
	C258.996124,113.512749 259.109802,113.034325 259.109802,113.034325 
	C273.569611,113.034325 288.029449,113.034325 302.744019,113.034325 
	C302.744019,117.871040 302.744019,122.453796 302.744019,127.476280 
	C292.976227,127.476280 283.251770,127.476280 273.268555,127.476280 
	C273.268555,135.469131 273.268555,143.029068 273.268555,150.951828 
	C279.125305,150.951828 284.896637,150.951828 291.240417,150.951828 
	C290.038757,155.328079 289.140656,159.291428 287.772278,163.085175 
	C287.438873,164.009506 285.597137,164.815155 284.386353,164.914764 
	C281.242523,165.173416 278.063904,165.009033 274.172607,165.039825 
	C273.343628,165.372528 273.241150,165.678894 273.138733,165.985260 
	C273.085510,173.686279 273.032288,181.387299 272.999634,189.797226 
	C273.083862,190.661819 273.147552,190.817520 273.211273,190.973221 
	C273.588898,191.618698 273.966522,192.264160 274.919891,192.945465 
	C275.658539,192.941299 275.821472,192.901306 275.984436,192.861298 
z"/>
<path fill="#FDFDFD" opacity="1.000000" stroke="none" 
	d="
M549.331787,140.415771 
	C556.828125,144.429962 559.917480,150.617920 559.979248,158.506210 
	C560.033875,165.479568 559.990662,172.453705 559.990662,179.961243 
	C549.194092,180.610947 538.341675,181.264023 527.553589,181.913223 
	C525.986023,191.401642 530.042236,195.324448 539.096069,193.111664 
	C543.219055,192.103989 547.204041,190.531387 551.724609,189.061188 
	C553.312073,192.636978 555.024048,196.493256 556.929688,200.785706 
	C546.080444,206.755264 534.802002,209.289536 522.859863,204.707779 
	C516.680237,202.336868 513.090210,197.396103 512.991760,190.553848 
	C512.838623,179.908646 512.640869,169.253525 512.930420,158.615341 
	C513.243958,147.093658 520.962769,138.801819 532.448547,138.192993 
	C537.918274,137.903061 543.486755,139.476273 549.331787,140.415771 
M528.189575,156.066147 
	C527.639954,159.877151 527.090271,163.688171 526.515869,167.670990 
	C533.559326,167.670990 539.727905,167.670990 545.960693,167.670990 
	C545.838074,161.856735 547.412537,155.545837 540.697205,152.740265 
	C536.429321,150.957153 531.942932,151.173767 528.189575,156.066147 
z"/>
<path fill="#FCFCFC" opacity="1.000000" stroke="none" 
	d="
M404.642395,195.950287 
	C404.642365,199.414429 404.642365,202.387695 404.642365,205.681763 
	C399.778717,205.681763 395.213928,205.681763 390.046539,205.681763 
	C390.046539,200.847031 390.050110,195.918381 390.045776,190.989731 
	C390.037292,181.331451 390.099518,171.672226 389.980682,162.015274 
	C389.923615,157.376068 387.403412,153.609512 383.062653,152.907089 
	C379.100311,152.265915 374.800568,153.493896 370.705078,154.214142 
	C370.278534,154.289169 370.037720,156.507767 370.033813,157.732819 
	C369.988159,172.053787 370.004517,186.374954 370.004517,200.696060 
	C370.004517,202.321411 370.004517,203.946747 370.004517,205.786407 
	C365.228485,205.786407 360.818695,205.786407 356.125488,205.786407 
	C356.125488,183.802963 356.125488,161.928345 356.125488,140.604599 
	C364.213623,139.754135 372.189423,138.860291 380.177032,138.088196 
	C392.882141,136.860107 403.336578,144.843369 404.150330,157.520844 
	C404.959442,170.125626 404.529175,182.809937 404.642395,195.950287 
z"/>
<path fill="#FEFEFE" opacity="1.000000" stroke="none" 
	d="
M660.138672,157.984436 
	C660.085449,173.352478 660.032227,188.720520 659.987549,204.787125 
	C659.996094,205.485687 659.885681,205.964081 659.885681,205.964081 
	C655.421021,205.964081 650.956299,205.964081 645.947449,205.964081 
	C645.947449,192.991196 645.979309,180.245178 645.918152,167.499588 
	C645.907104,165.198441 645.612305,162.884735 645.279053,160.601547 
	C644.050781,152.183884 634.483826,149.572861 626.810486,153.996216 
	C625.729370,154.619446 625.291931,157.094818 625.278320,158.718933 
	C625.161926,172.692886 625.211365,186.668213 625.211304,200.643143 
	C625.211304,202.273834 625.211304,203.904541 625.211304,205.761017 
	C620.463501,205.761017 616.040161,205.761017 611.318481,205.761017 
	C611.318481,183.927032 611.318481,162.084503 611.318481,140.608994 
	C620.328613,139.738602 629.139465,138.291260 637.967041,138.180969 
	C649.822998,138.032837 656.637512,144.111923 660.000671,156.880341 
	C660.015869,157.499847 660.138672,157.984436 660.138672,157.984436 
z"/>
<path fill="#FCFCFC" opacity="1.000000" stroke="none" 
	d="
M424.765320,144.834290 
	C431.428131,137.187927 445.974701,136.430069 455.204895,140.793076 
	C456.151611,141.240555 457.032074,143.388962 456.790741,144.497101 
	C456.059662,147.854065 454.761810,151.087601 453.779846,154.079529 
	C449.867035,153.391357 445.945557,152.230576 442.016693,152.205017 
	C439.984894,152.191788 436.875305,153.718979 436.133484,155.386795 
	C434.790955,158.405151 437.246826,160.622772 440.048798,161.804825 
	C444.440460,163.657516 448.953278,165.226242 453.324829,167.122543 
	C460.502960,170.236313 465.773071,174.927505 467.195312,183.223221 
	C469.028717,193.917099 464.166962,202.766113 453.828674,206.152618 
	C444.015564,209.367081 434.475220,208.742889 425.859406,202.656647 
	C421.490112,199.570175 418.928833,195.181580 419.009003,189.464752 
	C422.558899,188.989441 425.978088,188.285172 429.414185,188.189468 
	C430.843964,188.149643 432.753510,189.036011 433.679565,190.142014 
	C436.989899,194.095505 443.787903,195.709244 448.462433,193.282089 
	C453.313354,190.763367 454.292938,184.774185 449.799286,181.433472 
	C446.456055,178.948029 442.296295,177.366180 438.287628,176.010559 
	C429.572479,173.063309 422.356964,169.046906 420.493805,158.848007 
	C419.487305,153.338577 421.549072,149.202316 424.765320,144.834290 
z"/>
<path fill="#FCFCFC" opacity="1.000000" stroke="none" 
	d="
M492.029358,137.941559 
	C495.966431,138.979111 499.884064,139.519424 504.204254,140.115265 
	C503.432098,143.791504 502.744843,147.651382 501.721039,151.419846 
	C501.526917,152.134232 500.034821,152.832611 499.077454,152.934372 
	C496.947266,153.160797 494.776459,153.005020 492.006287,153.005020 
	C492.006287,163.890488 492.008850,174.643875 492.005524,185.397263 
	C492.002869,193.942917 492.825287,194.951660 501.287292,196.517212 
	C500.032196,199.922928 498.789246,203.295700 497.552368,206.651962 
	C484.895020,208.145767 477.306274,201.723755 477.179688,188.609024 
	C476.938782,163.653839 477.109833,138.694687 477.109833,113.365555 
	C481.953613,113.365555 486.674866,113.365555 492.009918,113.365555 
	C492.009918,121.270584 492.009918,129.357452 492.029358,137.941559 
z"/>
<path fill="#FEFEFE" opacity="1.000000" stroke="none" 
	d="
M591.146179,140.982529 
	C591.093628,162.018250 591.041138,183.053970 590.993530,204.787857 
	C590.998352,205.486023 590.886780,205.964401 590.886780,205.964401 
	C586.412720,205.964401 581.938599,205.964401 577.081909,205.964401 
	C577.081909,183.987244 577.081909,162.155472 577.081909,139.853592 
	C581.205872,139.853592 585.628723,139.853592 590.528076,140.179092 
	C591.004578,140.504593 591.146179,140.982529 591.146179,140.982529 
z"/>
<path fill="#FEFEFE" opacity="1.000000" stroke="none" 
	d="
M320.853821,205.017532 
	C320.906311,183.981812 320.958801,162.946106 321.003357,141.207428 
	C320.995392,140.504456 321.026550,140.006866 321.026550,140.006866 
	C325.644653,140.006866 330.262756,140.006866 335.082581,140.006866 
	C335.082581,161.873596 335.082581,183.712662 335.082581,205.997604 
	C330.598724,205.997604 326.315460,205.997604 321.516907,205.741821 
	C321.001617,205.486023 320.853821,205.017532 320.853821,205.017532 
z"/>
<path fill="#15629B" opacity="1.000000" stroke="none" 
	d="
M56.854145,226.607880 
	C53.889683,226.897720 50.913635,227.515274 47.963112,227.410950 
	C41.277439,227.174515 37.906357,222.376678 34.980850,216.474976 
	C36.360989,211.655380 37.116188,207.297821 39.090645,203.589447 
	C45.513065,191.526978 55.087879,182.041382 66.016495,174.165665 
	C75.636497,167.233032 85.981827,161.306885 96.322411,154.815033 
	C98.359451,153.838394 100.080917,152.982971 102.168579,152.047638 
	C104.344093,151.294449 106.153427,150.621201 108.215561,150.150620 
	C108.630173,151.182846 108.791969,152.012421 108.616821,152.982315 
	C88.725929,160.168060 72.314346,171.905991 57.780327,186.926636 
	C57.303993,187.505020 57.055298,187.944427 56.480354,188.526154 
	C50.229748,195.471100 42.541798,201.265427 42.676079,211.927917 
	C41.480320,214.192947 40.591038,216.237122 39.728207,218.668442 
	C41.241520,220.079453 42.615845,221.681213 44.240475,221.997589 
	C46.971851,222.529465 49.862339,222.244293 52.830246,222.530792 
	C53.294983,222.910660 53.615360,223.062561 54.105797,223.453796 
	C55.135288,224.664719 55.994717,225.636292 56.854145,226.607880 
z"/>
<path fill="#125B95" opacity="1.000000" stroke="none" 
	d="
M101.009583,59.597130 
	C102.868736,49.116989 107.629311,45.452068 120.319214,45.353271 
	C122.541718,48.001759 124.626083,50.154282 126.274635,52.600517 
	C137.362030,69.052780 140.961823,87.682739 141.573318,107.047333 
	C140.825638,107.017952 140.397369,107.005730 139.895996,106.618896 
	C139.604630,104.479774 139.386353,102.715256 139.352814,100.802917 
	C139.271271,100.082710 139.004990,99.510338 138.583008,98.539764 
	C137.028000,92.348206 135.628738,86.554825 134.196350,80.446762 
	C134.084518,79.714737 134.005783,79.297409 133.914703,78.512024 
	C131.839035,72.808807 130.343826,67.141785 127.495216,62.265373 
	C125.838394,59.429127 122.010902,57.860909 119.186157,55.400963 
	C119.955177,52.209015 119.604271,49.189930 116.397247,48.886127 
	C114.413376,48.698200 111.251160,50.323326 110.295135,52.058598 
	C108.108025,56.028393 105.688385,59.158104 101.040604,59.945847 
	C101.021057,59.830608 101.009583,59.597130 101.009583,59.597130 
z"/>
<path fill="#C6DEC3" opacity="1.000000" stroke="none" 
	d="
M139.231995,55.969231 
	C141.767807,64.892471 144.059830,73.601967 146.506775,82.998169 
	C146.773407,84.146919 146.885086,84.608940 146.996765,85.070961 
	C148.069870,100.539864 148.328293,115.973358 144.974915,131.248062 
	C144.689911,132.546326 144.373047,133.837601 143.782944,135.539429 
	C143.494904,135.946732 143.033371,136.033615 142.984711,135.603302 
	C143.290375,131.784058 143.644714,128.395142 144.249603,124.794098 
	C144.389252,123.380203 144.278366,122.178459 144.149231,120.510208 
	C144.074829,112.702995 144.018677,105.362282 144.235443,97.788666 
	C144.069443,96.007904 143.630539,94.460037 143.142014,92.525551 
	C143.043625,91.100655 142.994858,90.062386 143.205566,88.835953 
	C143.036652,87.736206 142.608215,86.824615 142.135040,85.597351 
	C142.071060,84.857307 142.051849,84.432945 142.306549,83.753754 
	C142.027435,72.014542 137.860138,61.699173 132.173508,51.923367 
	C131.627060,50.984001 130.028793,50.656490 128.657349,49.900818 
	C127.864304,48.945988 127.332695,48.135288 126.712761,47.002068 
	C125.826035,46.424294 125.027634,46.169044 123.980881,45.870403 
	C123.254333,45.684242 122.776161,45.541473 122.297981,45.398705 
	C131.146393,43.557079 135.251846,49.358868 139.231995,55.969231 
z"/>
<path fill="#1769A2" opacity="1.000000" stroke="none" 
	d="
M223.015778,181.201233 
	C231.170914,188.267426 231.896271,194.304169 225.401001,205.564865 
	C219.695206,206.322525 214.321075,208.412872 209.415939,207.616058 
	C198.040070,205.768082 186.736649,203.032074 175.701843,199.676193 
	C167.844467,197.286636 160.472290,193.301620 152.742325,189.955261 
	C152.601059,189.881897 152.301132,189.775146 152.192413,189.464859 
	C151.346680,188.806427 150.609680,188.458282 149.806290,187.920914 
	C149.739899,187.731689 149.790985,187.333908 149.852509,186.936722 
	C149.952332,186.005997 149.990646,185.472443 150.372253,185.014725 
	C153.442352,186.504700 156.169159,187.918854 158.988342,189.643570 
	C161.715469,191.008408 164.350220,192.062683 167.334076,193.153595 
	C169.419830,193.917053 171.156464,194.643860 173.005554,195.687927 
	C178.713181,197.948853 184.256119,200.069107 189.929855,201.747162 
	C192.126785,202.396927 194.619858,202.045517 197.301178,202.137207 
	C198.049408,202.191284 198.474472,202.258347 198.997803,202.632721 
	C200.393402,202.997955 201.690781,203.055893 203.398560,203.090332 
	C205.172256,203.159088 206.535538,203.251328 208.017365,203.667816 
	C210.126236,205.439789 211.935226,206.023224 213.170868,202.662811 
	C215.137161,201.587265 216.914948,200.824158 218.986740,200.168381 
	C221.303864,199.942993 223.326981,199.610291 225.663971,199.102936 
	C228.359955,194.119156 225.119125,190.728683 222.992767,186.638260 
	C223.006729,184.545151 223.011246,182.873184 223.015778,181.201233 
z"/>
<path fill="#C6DEC3" opacity="1.000000" stroke="none" 
	d="
M149.790985,187.333908 
	C149.790985,187.333908 149.739899,187.731689 149.877365,188.254089 
	C150.776932,189.109375 151.539032,189.442261 152.301132,189.775146 
	C152.301132,189.775146 152.601059,189.881897 152.814270,190.295715 
	C153.483704,191.169678 153.857651,191.803909 154.408371,192.064255 
	C165.462631,197.290039 176.215729,203.391800 187.697250,207.408371 
	C199.427841,211.512085 211.870209,214.384216 224.085281,207.977356 
	C220.668594,215.565948 214.028427,216.324463 206.132996,215.984116 
	C204.496002,215.691696 203.641281,215.495941 202.368896,215.269791 
	C194.677902,213.214874 187.404602,211.190353 179.857056,209.015625 
	C179.030777,208.615265 178.478745,208.365112 177.660797,207.873611 
	C166.828629,201.514404 156.156967,195.567490 145.768097,189.161926 
	C143.073029,187.500214 141.262665,184.403687 139.363358,181.976990 
	C140.423584,182.347168 141.166397,182.706558 142.080505,183.314301 
	C142.807236,183.728989 143.362656,183.895294 143.935944,184.040756 
	C143.953812,184.019913 143.958740,184.074585 144.034027,184.334442 
	C144.425507,184.739258 144.741714,184.884201 145.288345,185.058655 
	C145.518784,185.088150 145.969208,184.974030 145.906097,185.048615 
	C145.843002,185.123215 145.878967,185.315277 145.978546,185.539368 
	C146.316986,186.028900 146.614059,186.143066 147.249847,186.241074 
	C148.283905,186.695450 149.037445,187.014679 149.790985,187.333908 
z"/>
<path fill="#C6DEC3" opacity="1.000000" stroke="none" 
	d="
M101.802391,152.127563 
	C100.080917,152.982971 98.359451,153.838394 95.928101,154.791870 
	C94.723450,154.940887 94.177818,154.873001 93.741196,155.059860 
	C73.195290,163.851974 55.113091,176.101425 40.886604,193.514160 
	C36.275562,199.157913 32.050190,205.238022 32.932720,213.229904 
	C28.703213,208.921555 30.026348,204.230026 32.035694,199.528152 
	C32.866856,197.583252 33.851093,195.703766 35.033401,193.340210 
	C35.879932,192.417862 36.458775,191.949860 37.267708,191.206787 
	C42.687481,185.877884 47.877163,180.824066 53.336941,175.712494 
	C54.436924,174.911255 55.266811,174.167816 56.420998,173.285767 
	C66.728836,167.399490 76.521835,161.275665 86.783638,156.077255 
	C91.298302,153.790268 96.766907,153.386414 101.802391,152.127563 
z"/>
<path fill="#7BC6C2" opacity="1.000000" stroke="none" 
	d="
M32.910721,213.572952 
	C32.050190,205.238022 36.275562,199.157913 40.886604,193.514160 
	C55.113091,176.101425 73.195290,163.851974 93.741196,155.059860 
	C94.177818,154.873001 94.723450,154.940887 95.612534,154.913116 
	C85.981827,161.306885 75.636497,167.233032 66.016495,174.165665 
	C55.087879,182.041382 45.513065,191.526978 39.090645,203.589447 
	C37.116188,207.297821 36.360989,211.655380 35.011951,216.146835 
	C34.280521,215.690659 33.584625,214.803329 32.910721,213.572952 
z"/>
<path fill="#69BDC4" opacity="1.000000" stroke="none" 
	d="
M224.353790,207.826996 
	C211.870209,214.384216 199.427841,211.512085 187.697250,207.408371 
	C176.215729,203.391800 165.462631,197.290039 154.408371,192.064255 
	C153.857651,191.803909 153.483704,191.169678 152.955536,190.369080 
	C160.472290,193.301620 167.844467,197.286636 175.701843,199.676193 
	C186.736649,203.032074 198.040070,205.768082 209.415939,207.616058 
	C214.321075,208.412872 219.695206,206.322525 225.145630,205.770386 
	C225.164093,206.556885 224.893188,207.116776 224.353790,207.826996 
z"/>
<path fill="#4FABC5" opacity="1.000000" stroke="none" 
	d="
M143.962540,98.021568 
	C144.018677,105.362282 144.074829,112.702995 144.071503,120.907692 
	C144.007706,122.849861 144.003387,123.928047 143.999054,125.006233 
	C143.644714,128.395142 143.290375,131.784058 142.993088,135.977814 
	C142.377106,138.230148 141.704071,139.677643 140.965439,140.821472 
	C140.829910,140.323303 140.759995,140.128815 140.756226,139.511810 
	C141.447037,134.382645 142.440613,129.688324 142.598434,124.966057 
	C142.776260,119.645218 142.201294,114.299232 141.981049,108.646660 
	C141.969788,107.907593 141.931259,107.486038 141.892731,107.064491 
	C140.961823,87.682739 137.362030,69.052780 126.274635,52.600517 
	C124.626083,50.154282 122.541718,48.001759 120.743042,45.436108 
	C121.078949,45.156136 121.330780,45.153412 121.940300,45.274696 
	C122.776161,45.541473 123.254333,45.684242 124.071762,46.175777 
	C125.207710,46.791225 126.004402,47.057907 126.801094,47.324589 
	C127.332695,48.135288 127.864304,48.945988 128.702881,50.249809 
	C131.094666,54.654465 133.631180,58.397873 135.163635,62.515003 
	C137.784515,69.556252 139.776520,76.831566 142.032639,84.008583 
	C142.051849,84.432945 142.071060,84.857307 142.066513,85.939026 
	C142.343872,87.405624 142.644974,88.214867 142.946075,89.024109 
	C142.994858,90.062386 143.043625,91.100655 143.069366,92.914932 
	C143.351730,95.134476 143.657135,96.578018 143.962540,98.021568 
z"/>
<path fill="#FCFCFC" opacity="1.000000" stroke="none" 
	d="
M576.293579,119.211884 
	C578.798157,112.822006 583.075134,110.249451 587.104065,113.144699 
	C589.288330,114.714340 591.690857,118.311768 591.299988,120.516830 
	C590.856140,123.021004 587.772827,125.957687 585.166016,126.958221 
	C581.632263,128.314499 578.475708,126.223312 577.023193,122.434120 
	C576.671753,121.517319 576.492615,120.534416 576.293579,119.211884 
z"/>
<path fill="#FCFCFC" opacity="1.000000" stroke="none" 
	d="
M322.086060,123.630508 
	C320.204773,117.889389 321.177429,115.023216 325.395599,113.037872 
	C329.116852,111.286423 333.184296,112.452126 335.088409,116.090691 
	C337.003540,119.750214 336.304779,123.145157 333.127655,125.807426 
	C329.967438,128.455566 326.157440,127.746590 322.086060,123.630508 
z"/>
<path fill="#2779AD" opacity="1.000000" stroke="none" 
	d="
M222.666656,180.861237 
	C223.011246,182.873184 223.006729,184.545151 222.694626,186.653870 
	C222.188553,187.107666 221.990082,187.124695 221.817535,186.784485 
	C218.371414,183.869431 214.893631,181.319351 211.429642,178.750656 
	C209.598923,177.393112 207.792175,176.003235 206.028992,174.321716 
	C206.803787,172.431534 207.524170,170.847595 208.244568,169.263657 
	C212.485764,172.341919 216.726959,175.420181 221.276733,178.698303 
	C221.585297,178.898193 221.633591,178.702271 221.633591,178.702271 
	C221.861572,179.308594 222.089554,179.914932 222.666656,180.861237 
z"/>
<path fill="#55387E" opacity="1.000000" stroke="none" 
	d="
M83.960953,83.452728 
	C87.481117,82.127975 91.108002,81.021553 94.471970,79.377251 
	C95.936234,78.661507 97.573387,76.992393 97.890968,75.493347 
	C98.705208,71.650024 98.824150,67.659401 99.442307,63.112942 
	C100.645332,62.342445 101.627121,62.186672 102.686676,62.357735 
	C103.101463,63.241238 103.438484,63.797901 103.750099,64.547562 
	C103.702911,65.002197 103.725426,65.259964 103.467819,65.622208 
	C103.041061,66.615944 102.938728,67.501343 102.815186,68.652435 
	C102.797623,69.450859 102.801262,69.983597 102.446381,70.652023 
	C102.006943,72.321114 101.926018,73.854507 101.826981,75.657227 
	C101.838837,76.464752 101.868813,77.002960 101.688080,77.713242 
	C101.632118,78.299553 101.786850,78.713776 102.109268,79.298798 
	C102.481766,79.717476 102.691208,79.961395 102.847031,80.552849 
	C102.826057,82.085800 102.863312,83.267265 102.669296,84.319321 
	C102.263382,84.163239 102.088730,84.136566 101.803802,83.969543 
	C101.497902,83.673279 101.278229,83.566750 101.057159,83.177467 
	C99.729790,82.394920 98.379768,81.944511 96.624237,81.583397 
	C92.217491,82.765602 88.216248,83.858505 84.166779,84.574158 
	C84.066025,83.948845 84.013489,83.700790 83.960953,83.452728 
z"/>
<path fill="#AD8086" opacity="1.000000" stroke="none" 
	d="
M202.786591,215.300171 
	C203.641281,215.495941 204.496002,215.691696 205.682709,215.956299 
	C197.595367,227.717300 186.236237,235.562637 172.499969,241.059570 
	C171.572906,240.656433 171.292450,240.337234 171.307175,239.839767 
	C182.646835,234.850159 192.549393,228.385956 200.622009,219.352249 
	C201.613449,218.242767 202.077911,216.662369 202.786591,215.300171 
z"/>
<path fill="#A7677B" opacity="1.000000" stroke="none" 
	d="
M171.011993,240.018036 
	C171.292450,240.337234 171.572906,240.656433 172.148438,241.114075 
	C158.534149,247.816345 143.889206,248.979309 128.441269,246.784698 
	C128.051239,245.992279 128.062256,245.605972 128.478821,245.211182 
	C143.374176,247.108566 157.347870,244.821030 171.011993,240.018036 
z"/>
<path fill="#4FABC5" opacity="1.000000" stroke="none" 
	d="
M61.627445,223.658096 
	C61.255501,223.961838 60.883556,224.265564 59.803764,224.944031 
	C57.472828,223.833984 55.849735,222.349228 53.920609,220.792572 
	C53.422882,220.802612 53.231186,220.884552 53.023033,220.972031 
	C53.006569,220.977585 53.027908,220.941299 53.183998,220.677948 
	C53.337521,220.008072 53.334961,219.601532 53.711014,219.155869 
	C59.514877,217.385040 64.940132,215.653366 70.625900,214.127136 
	C71.659035,215.641281 72.431664,216.949951 73.408936,218.605270 
	C69.041733,220.478271 65.334587,222.068176 61.627445,223.658096 
z"/>
<path fill="#AD8086" opacity="1.000000" stroke="none" 
	d="
M37.037609,191.481842 
	C36.458775,191.949860 35.879932,192.417862 35.034157,192.990524 
	C29.037378,179.826172 27.893633,166.016342 30.447990,151.468933 
	C31.293165,151.143280 31.591890,151.183533 31.857166,151.678497 
	C31.991816,160.498962 31.651772,168.918015 32.521343,177.210220 
	C33.031166,182.071823 35.467739,186.731400 37.037609,191.481842 
z"/>
<path fill="#99286C" opacity="1.000000" stroke="none" 
	d="
M208.365112,168.833160 
	C207.524170,170.847595 206.803787,172.431534 205.830872,174.604034 
	C205.050064,175.469925 204.521774,175.747253 203.912735,175.700577 
	C203.857208,174.932281 203.882431,174.487991 204.099457,173.772476 
	C204.520981,172.663132 204.750717,171.824997 205.097321,170.718048 
	C205.233170,169.401474 205.252151,168.353714 205.271118,167.305954 
	C206.840240,160.500031 208.762299,153.749771 209.847519,146.867538 
	C210.509323,142.670593 209.882690,138.270508 210.141083,133.490021 
	C210.825790,133.005844 211.204193,132.993286 211.582596,132.980743 
	C213.148163,145.015182 211.632996,156.780258 208.365112,168.833160 
z"/>
<path fill="#A7677B" opacity="1.000000" stroke="none" 
	d="
M31.890614,151.223785 
	C31.591890,151.183533 31.293165,151.143280 30.543999,151.064026 
	C31.299068,139.574997 35.317684,129.119583 41.979248,119.196594 
	C42.961601,119.092804 43.255722,119.147705 43.402603,119.538437 
	C37.272942,129.528687 34.118095,140.208145 31.890614,151.223785 
z"/>
<path fill="#A7677B" opacity="1.000000" stroke="none" 
	d="
M195.261337,91.679893 
	C193.405075,90.445328 191.862015,88.847473 190.201935,87.382179 
	C183.875519,81.798088 177.511353,76.256752 171.216507,70.300125 
	C171.518509,69.593765 171.765305,69.286736 172.012100,68.979706 
	C181.654556,74.549820 189.629623,81.870010 195.261337,91.679893 
z"/>
<path fill="#AD8086" opacity="1.000000" stroke="none" 
	d="
M171.765320,68.751724 
	C171.765305,69.286736 171.518509,69.593765 171.003540,70.036537 
	C162.121704,66.734619 153.504028,63.306850 144.903671,59.836246 
	C144.352005,59.613625 143.933990,59.059746 143.343918,58.337837 
	C153.763412,58.554237 162.781815,63.159897 171.765320,68.751724 
z"/>
<path fill="#9AD6BB" opacity="1.000000" stroke="none" 
	d="
M54.226643,220.864456 
	C55.849735,222.349228 57.472828,223.833984 59.264465,225.421509 
	C65.222687,229.698135 71.012360,233.872009 76.802032,238.045868 
	C76.507072,238.493134 76.212112,238.940384 75.917152,239.387650 
	C69.771255,235.266922 63.625355,231.146194 57.166801,226.816681 
	C55.994717,225.636292 55.135288,224.664719 54.173603,223.065002 
	C54.123116,221.912720 54.174881,221.388596 54.226643,220.864456 
z"/>
<path fill="#9F3C6E" opacity="1.000000" stroke="none" 
	d="
M43.549835,119.202591 
	C43.255722,119.147705 42.961601,119.092804 42.223816,118.968597 
	C47.570137,111.968155 53.360126,105.037025 59.718689,98.113411 
	C60.527748,98.422081 60.768227,98.723244 60.816978,99.292130 
	C54.933445,106.107437 49.241638,112.655014 43.549835,119.202591 
z"/>
<path fill="#9F3C6E" opacity="1.000000" stroke="none" 
	d="
M128.073273,245.219666 
	C128.062256,245.605972 128.051239,245.992279 128.049408,246.668289 
	C119.478935,244.585129 110.899307,242.212250 102.172684,239.095596 
	C102.081558,238.032898 102.137436,237.713989 102.550011,237.545883 
	C111.295570,240.204361 119.684418,242.712021 128.073273,245.219666 
z"/>
<path fill="#9F3C6E" opacity="1.000000" stroke="none" 
	d="
M211.645172,132.578995 
	C211.204193,132.993286 210.825790,133.005844 210.162384,133.024078 
	C208.077972,124.833954 206.278580,116.638168 204.739822,108.177628 
	C207.236221,116.000999 209.471985,124.089127 211.645172,132.578995 
z"/>
<path fill="#99286C" opacity="1.000000" stroke="none" 
	d="
M61.008705,99.024399 
	C60.768227,98.723244 60.527748,98.422081 60.024223,97.989822 
	C67.568283,93.102127 75.375381,88.345535 83.571716,83.520828 
	C84.013489,83.700790 84.066025,83.948845 83.828819,84.730942 
	C76.028961,89.851456 68.518829,94.437927 61.008705,99.024399 
z"/>
<path fill="#77ACBA" opacity="1.000000" stroke="none" 
	d="
M102.608910,62.030895 
	C101.627121,62.186672 100.645332,62.342445 99.421021,62.669670 
	C93.071213,65.512268 86.963913,68.183411 80.856621,70.854546 
	C86.059914,64.969589 93.316139,62.681988 100.646027,59.740742 
	C101.009583,59.597130 101.021057,59.830608 101.187408,60.219376 
	C101.942307,60.793259 102.530861,60.978374 103.007019,61.389156 
	C102.799393,61.753517 102.704147,61.892204 102.608910,62.030895 
z"/>
<path fill="#B9D6C2" opacity="1.000000" stroke="none" 
	d="
M221.929321,178.623749 
	C221.633591,178.702271 221.585297,178.898193 221.619598,178.914352 
	C222.223984,171.918350 222.794067,164.906189 223.364151,157.894043 
	C223.669464,157.834122 223.974777,157.774216 224.280106,157.714310 
	C224.475372,159.152847 224.995102,160.634949 224.808823,162.022263 
	C224.067123,167.545975 223.105362,173.040131 221.929321,178.623749 
z"/>
<path fill="#9F3C6E" opacity="1.000000" stroke="none" 
	d="
M61.777771,223.934174 
	C65.334587,222.068176 69.041733,220.478271 73.408936,218.605270 
	C72.431664,216.949951 71.659035,215.641281 70.507462,213.849396 
	C69.764267,212.905899 69.400009,212.445587 68.941299,211.675751 
	C68.201881,210.825516 67.556915,210.284836 66.899452,209.545471 
	C66.886955,209.346786 66.954765,208.954453 67.310303,208.961105 
	C68.376328,208.978928 69.086823,208.990097 69.869690,209.330780 
	C70.911850,210.880615 71.881622,212.100906 72.983734,213.567230 
	C73.643219,214.338364 74.170364,214.863510 74.850998,215.641754 
	C75.653992,216.640778 76.303505,217.386673 77.005356,218.338104 
	C77.057678,218.543655 77.211563,218.938965 76.951347,219.051300 
	C76.441246,219.442368 76.191360,219.721100 75.941483,219.999847 
	C71.270355,221.403320 66.599228,222.806793 61.777771,223.934174 
z"/>
<path fill="#99286C" opacity="1.000000" stroke="none" 
	d="
M102.193314,237.395050 
	C102.137436,237.713989 102.081558,238.032898 101.944031,238.831055 
	C97.047974,236.376801 92.233559,233.443298 87.326485,229.992645 
	C87.559753,229.247833 87.885689,229.020172 88.523895,228.928375 
	C93.288551,231.841156 97.740936,234.618103 102.193314,237.395050 
z"/>
<path fill="#9F3C6E" opacity="1.000000" stroke="none" 
	d="
M202.886719,104.546249 
	C200.250336,101.186035 197.680771,97.451912 195.285950,93.245941 
	C195.682632,92.439857 195.904602,92.105614 196.126556,91.771362 
	C198.402206,95.905029 200.677856,100.038689 202.886719,104.546249 
z"/>
<path fill="#73095E" opacity="1.000000" stroke="none" 
	d="
M88.211609,228.792511 
	C87.885689,229.020172 87.559753,229.247833 87.101677,229.746262 
	C83.391792,226.880966 79.814056,223.744919 76.088898,220.304352 
	C76.191360,219.721100 76.441246,219.442368 77.231277,219.214539 
	C81.251480,222.441116 84.731544,225.616821 88.211609,228.792511 
z"/>
<path fill="#040404" opacity="1.000000" stroke="none" 
	d="
M660.287842,157.897827 
	C660.138672,157.984436 660.015869,157.499847 660.088196,157.260590 
	C660.308350,157.184982 660.473999,157.337219 660.591309,157.520416 
	C660.620422,157.565811 660.492737,157.711578 660.287842,157.897827 
z"/>
<path fill="#040404" opacity="1.000000" stroke="none" 
	d="
M320.863525,140.086502 
	C321.026550,140.006866 320.995392,140.504456 320.924622,140.743500 
	C320.721161,140.797684 320.573181,140.620728 320.470032,140.420624 
	C320.451599,140.384903 320.618927,140.253418 320.863525,140.086502 
z"/>
<path fill="#040404" opacity="1.000000" stroke="none" 
	d="
M273.322449,165.897858 
	C273.241150,165.678894 273.343628,165.372528 273.712708,165.113373 
	C273.889740,165.426788 273.732025,165.643417 273.322449,165.897858 
z"/>
<path fill="#A7677B" opacity="1.000000" stroke="none" 
	d="
M195.806946,91.619705 
	C195.904602,92.105614 195.682632,92.439857 195.189774,92.911095 
	C194.848450,92.864639 194.778046,92.681198 194.860809,92.245850 
	C195.171783,91.818649 195.329559,91.643341 195.806946,91.619705 
z"/>
<path fill="#040404" opacity="1.000000" stroke="none" 
	d="
M591.290527,140.875076 
	C591.146179,140.982529 591.004578,140.504593 590.989075,140.255829 
	C591.127380,140.260590 591.281128,140.514099 591.290527,140.875076 
z"/>
<path fill="#040404" opacity="1.000000" stroke="none" 
	d="
M660.057739,205.896454 
	C659.885681,205.964081 659.996094,205.485687 660.067383,205.250763 
	C660.262268,205.209106 660.398193,205.396545 660.494690,205.602478 
	C660.507812,205.630371 660.322937,205.751068 660.057739,205.896454 
z"/>
<path fill="#040404" opacity="1.000000" stroke="none" 
	d="
M591.058105,205.897095 
	C590.886780,205.964401 590.998352,205.486023 591.072266,205.251770 
	C591.267151,205.211411 591.400818,205.399506 591.494385,205.605789 
	C591.507385,205.634506 591.322571,205.752914 591.058105,205.897095 
z"/>
<path fill="#040404" opacity="1.000000" stroke="none" 
	d="
M320.712769,205.132477 
	C320.853821,205.017532 321.001617,205.486023 321.057434,205.725220 
	C320.932709,205.725418 320.752228,205.486404 320.712769,205.132477 
z"/>
<path fill="#040404" opacity="1.000000" stroke="none" 
	d="
M258.711670,205.132721 
	C258.851135,205.017242 258.996063,205.487198 259.052917,205.726440 
	C258.930603,205.726501 258.751373,205.487350 258.711670,205.132721 
z"/>
<path fill="#040404" opacity="1.000000" stroke="none" 
	d="
M258.939880,113.102661 
	C259.109802,113.034325 258.996124,113.512749 258.923645,113.747719 
	C258.731598,113.789009 258.598907,113.601196 258.507263,113.395111 
	C258.493988,113.365273 258.677490,113.247879 258.939880,113.102661 
z"/>
<path fill="#040404" opacity="1.000000" stroke="none" 
	d="
M302.888367,192.976654 
	C302.951050,193.152634 302.474091,193.043243 302.244049,192.959869 
	C302.284546,192.851227 302.555115,192.825958 302.888367,192.976654 
z"/>
<path fill="#040404" opacity="1.000000" stroke="none" 
	d="
M275.901672,192.712677 
	C275.821472,192.901306 275.658539,192.941299 275.259766,192.893417 
	C275.288879,192.725067 275.553894,192.644562 275.901672,192.712677 
z"/>
<path fill="#040404" opacity="1.000000" stroke="none" 
	d="
M273.344971,190.870209 
	C273.147552,190.817520 273.083862,190.661819 273.079468,190.260834 
	C273.252014,190.266083 273.365326,190.516632 273.344971,190.870209 
z"/>
<path fill="#134C81" opacity="1.000000" stroke="none" 
	d="
M97.029739,81.494102 
	C98.379768,81.944511 99.729790,82.394920 100.786087,83.526215 
	C100.668587,87.504143 100.844826,90.801193 101.040329,94.502266 
	C101.299034,97.597038 101.538475,100.287781 101.556297,103.189270 
	C101.555779,104.297104 101.776878,105.194191 102.036148,106.500252 
	C102.361519,109.364113 102.388359,111.884583 102.987038,114.260994 
	C104.494843,120.246063 106.260529,126.166168 107.953384,132.473190 
	C108.352226,134.195114 108.720520,135.556168 109.048203,137.288239 
	C111.293800,142.348526 113.580002,147.037781 115.602173,151.185471 
	C117.750519,149.980209 119.270760,149.127335 121.197693,148.183472 
	C127.667252,148.969223 133.495880,148.907135 138.474243,143.993469 
	C139.322342,144.090820 139.805466,144.169144 140.297607,144.527740 
	C140.878464,145.397430 141.450287,145.986816 142.022110,146.576218 
	C143.736725,146.696167 145.451340,146.816132 147.610916,147.182373 
	C148.055878,147.428665 148.164047,147.897263 147.789795,147.923828 
	C146.225754,148.113724 145.035965,148.277054 143.846176,148.440369 
	C144.262436,149.013184 144.678696,149.585983 144.827484,150.383423 
	C142.743271,150.222076 140.926529,149.836105 138.546967,149.330566 
	C135.884201,154.417572 133.091522,159.752777 129.938324,165.064087 
	C129.103485,165.035355 128.629166,165.030533 128.225739,164.686996 
	C128.497772,163.232513 128.698898,162.116760 128.962296,160.618500 
	C129.796707,157.287308 130.568832,154.338593 131.307922,151.516037 
	C127.083809,152.075226 123.768799,152.514069 121.068367,152.871552 
	C122.520370,155.722061 123.866333,158.364395 125.189438,161.272217 
	C125.196289,161.712830 125.225998,161.887970 125.207153,162.296448 
	C125.158615,162.529816 125.151405,163.006485 124.762993,163.025269 
	C123.633644,162.540054 122.561516,162.205063 122.204338,161.505188 
	C119.422966,156.055344 115.601036,152.324600 108.953766,152.841995 
	C108.791969,152.012421 108.630173,151.182846 108.325661,149.828522 
	C109.124168,148.531036 110.065392,147.758331 111.075249,146.929276 
	C100.430161,126.220764 97.566071,104.103218 97.029739,81.494102 
M135.252319,148.543991 
	C134.860779,148.417435 134.473892,148.269684 134.073807,148.182205 
	C133.993683,148.164703 133.863358,148.376877 133.756180,148.483139 
	C134.147781,148.610382 134.539383,148.737610 135.252319,148.543991 
z"/>
<path fill="#125B95" opacity="1.000000" stroke="none" 
	d="
M145.094971,150.158783 
	C144.678696,149.585983 144.262436,149.013184 143.846176,148.440369 
	C145.035965,148.277054 146.225754,148.113724 148.143387,147.943680 
	C149.579742,147.903198 150.288254,147.869415 150.996765,147.835648 
	C151.185150,147.848465 151.373535,147.861267 152.206268,147.882339 
	C154.563782,148.182404 156.276947,148.474167 157.990097,148.765945 
	C158.443069,148.818787 158.896027,148.871628 159.816101,149.205750 
	C160.853958,149.555374 161.424713,149.623718 161.995483,149.692062 
	C162.456177,149.748138 162.916885,149.804214 163.830750,150.143784 
	C164.854492,150.518219 165.425049,150.609146 165.995621,150.700089 
	C166.449463,150.766052 166.903320,150.832016 167.815826,151.188324 
	C168.848297,151.585403 169.422104,151.692139 169.995895,151.798874 
	C170.430817,151.859680 170.865723,151.920486 171.707642,152.227112 
	C172.315399,152.780853 172.593994,152.889923 172.950409,152.800125 
	C173.396637,152.856903 173.842880,152.913681 174.703430,153.222076 
	C175.316483,153.784088 175.595596,153.898743 175.955078,153.817673 
	C185.495178,158.206207 195.035263,162.594742 204.923233,167.144623 
	C205.252151,168.353714 205.233170,169.401474 204.750519,170.676788 
	C202.729996,169.960663 201.206055,168.956955 199.611023,168.082932 
	C188.251022,161.858063 176.900330,155.603302 163.998291,153.006989 
	C163.996429,152.997849 163.981293,153.006882 163.772263,152.741486 
	C162.684082,152.351105 161.804916,152.226135 160.516068,152.021820 
	C155.692169,151.313370 151.277954,150.684280 146.569855,150.082932 
	C145.882309,150.126724 145.488632,150.142761 145.094971,150.158783 
z"/>
<path fill="#470852" opacity="1.000000" stroke="none" 
	d="
M147.336060,85.177643 
	C146.885086,84.608940 146.773407,84.146919 146.709717,83.326920 
	C154.134674,86.958221 161.996994,90.268280 168.767563,95.106194 
	C177.518341,101.359085 184.578445,109.520782 189.207077,119.654594 
	C178.174728,104.713699 165.367889,92.005539 147.336060,85.177643 
z"/>
<path fill="#12151C" opacity="1.000000" stroke="none" 
	d="
M142.029968,146.218719 
	C141.450287,145.986816 140.878464,145.397430 140.565872,144.304932 
	C140.901611,142.892822 140.978119,141.983810 141.033447,141.078369 
	C141.012253,141.081909 141.031036,141.125137 141.031036,141.125137 
	C141.704071,139.677643 142.377106,138.230148 143.041748,136.408142 
	C143.033371,136.033615 143.494904,135.946732 143.728363,135.921448 
	C143.320465,139.217834 142.679138,142.539520 142.029968,146.218719 
z"/>
<path fill="#12151C" opacity="1.000000" stroke="none" 
	d="
M157.902222,148.430664 
	C156.276947,148.474167 154.563782,148.182404 152.481537,147.815704 
	C154.013092,147.858963 155.913712,147.977173 157.902222,148.430664 
z"/>
<path fill="#12151C" opacity="1.000000" stroke="none" 
	d="
M150.942551,147.529663 
	C150.288254,147.869415 149.579742,147.903198 148.517639,147.917114 
	C148.164047,147.897263 148.055878,147.428665 148.042908,147.188263 
	C148.982742,147.039795 149.935532,147.131744 150.942551,147.529663 
z"/>
<path fill="#12151C" opacity="1.000000" stroke="none" 
	d="
M169.958038,151.531418 
	C169.422104,151.692139 168.848297,151.585403 168.160278,151.192505 
	C168.670761,151.025558 169.295456,151.144760 169.958038,151.531418 
z"/>
<path fill="#12151C" opacity="1.000000" stroke="none" 
	d="
M165.953735,150.445129 
	C165.425049,150.609146 164.854492,150.518219 164.179321,150.136551 
	C164.687088,149.960602 165.299469,150.075378 165.953735,150.445129 
z"/>
<path fill="#12151C" opacity="1.000000" stroke="none" 
	d="
M161.950821,149.433517 
	C161.424713,149.623718 160.853958,149.555374 160.158478,149.208878 
	C160.657898,149.012146 161.282028,149.093567 161.950821,149.433517 
z"/>
<path fill="#12151C" opacity="1.000000" stroke="none" 
	d="
M175.837311,153.632492 
	C175.595596,153.898743 175.316483,153.784088 175.040283,153.245987 
	C175.260513,153.081161 175.512772,153.224182 175.837311,153.632492 
z"/>
<path fill="#12151C" opacity="1.000000" stroke="none" 
	d="
M172.831787,152.618286 
	C172.593994,152.889923 172.315399,152.780853 172.036804,152.246887 
	C172.254395,152.079590 172.505783,152.218124 172.831787,152.618286 
z"/>
<path fill="#0D1117" opacity="1.000000" stroke="none" 
	d="
M707.690918,128.928009 
	C720.081482,130.273956 720.619019,134.715149 721.467590,146.401001 
	C721.645020,148.845001 721.351624,151.388901 720.862244,153.803024 
	C719.506775,160.489014 715.069946,164.156586 707.046387,164.972137 
	C703.292236,165.353714 699.467041,165.037430 695.303345,165.037430 
	C695.303345,152.959381 695.303345,141.276810 695.303345,128.927841 
	C699.363770,128.927841 703.297546,128.927841 707.690918,128.928009 
z"/>
<path fill="#0F1219" opacity="1.000000" stroke="none" 
	d="
M528.455078,155.761215 
	C531.942932,151.173767 536.429321,150.957153 540.697205,152.740265 
	C547.412537,155.545837 545.838074,161.856735 545.960693,167.670990 
	C539.727905,167.670990 533.559326,167.670990 526.515869,167.670990 
	C527.090271,163.688171 527.639954,159.877151 528.455078,155.761215 
z"/>
<path fill="#0F1219" opacity="1.000000" stroke="none" 
	d="
M96.624237,81.583397 
	C97.566071,104.103218 100.430161,126.220764 111.075249,146.929276 
	C110.065392,147.758331 109.124168,148.531036 108.072845,149.625854 
	C106.153427,150.621201 104.344093,151.294449 102.168579,152.047638 
	C96.766907,153.386414 91.298302,153.790268 86.783638,156.077255 
	C76.521835,161.275665 66.728836,167.399490 56.257019,172.870056 
	C52.822514,153.828690 56.719917,136.282135 64.988541,119.300789 
	C62.001091,123.226517 59.760170,127.449219 57.968960,131.854767 
	C52.213509,146.010483 51.657024,160.791000 53.066849,175.770264 
	C47.877163,180.824066 42.687481,185.877884 37.267700,191.206772 
	C35.467739,186.731400 33.031166,182.071823 32.521343,177.210220 
	C31.651772,168.918015 31.991816,160.498962 31.857166,151.678497 
	C34.118095,140.208145 37.272942,129.528687 43.402603,119.538437 
	C49.241638,112.655014 54.933445,106.107437 60.816978,99.292130 
	C68.518829,94.437927 76.028961,89.851456 83.877045,85.108200 
	C88.216248,83.858505 92.217491,82.765602 96.624237,81.583397 
z"/>
<path fill="#0F1319" opacity="1.000000" stroke="none" 
	d="
M108.616821,152.982315 
	C115.601036,152.324600 119.422966,156.055344 122.204338,161.505188 
	C122.561516,162.205063 123.633644,162.540054 124.893402,162.937241 
	C125.630356,162.536179 125.578178,162.280411 125.255699,162.063095 
	C125.225998,161.887970 125.196289,161.712830 125.556290,161.270203 
	C126.930672,161.002136 127.915344,161.001556 128.900009,161.000977 
	C128.698898,162.116760 128.497772,163.232513 127.999237,164.970566 
	C125.784248,168.685379 123.866692,171.777908 121.634918,174.988312 
	C117.123764,179.004349 112.926819,182.902481 108.409058,186.907272 
	C96.358208,195.814011 83.920914,203.358643 69.772888,208.233185 
	C68.231819,206.300873 66.782608,204.671890 65.818619,202.793839 
	C63.108143,197.513321 60.597443,192.130264 58.007969,186.787628 
	C72.314346,171.905991 88.725929,160.168060 108.616821,152.982315 
z"/>
<path fill="#12151C" opacity="1.000000" stroke="none" 
	d="
M66.954765,208.954453 
	C66.954765,208.954453 66.886955,209.346786 66.536331,209.665405 
	C64.295593,210.618118 62.438526,211.386536 60.509190,211.861221 
	C54.667416,213.298538 48.784260,215.930237 42.982555,211.707077 
	C42.541798,201.265427 50.229748,195.471100 56.636040,188.920975 
	C60.396904,195.767120 63.675835,202.360779 66.954765,208.954453 
z"/>
<path fill="#C6DEC3" opacity="1.000000" stroke="none" 
	d="
M42.676079,211.927917 
	C48.784260,215.930237 54.667416,213.298538 60.509190,211.861221 
	C62.438526,211.386536 64.295593,210.618118 66.548828,209.864075 
	C67.556915,210.284836 68.201881,210.825516 68.703568,211.948517 
	C63.834164,214.006622 59.088810,215.426407 54.407990,217.034073 
	C53.866001,217.220215 53.682247,218.449402 53.332405,219.195007 
	C53.334961,219.601532 53.337521,220.008072 52.814163,220.591324 
	C48.092747,219.939133 43.897251,219.110214 39.701752,218.281296 
	C40.591038,216.237122 41.480320,214.192947 42.676079,211.927917 
z"/>
<path fill="#73095E" opacity="1.000000" stroke="none" 
	d="
M67.310303,208.961105 
	C63.675835,202.360779 60.396904,195.767120 56.962288,188.778625 
	C57.055298,187.944427 57.303993,187.505020 57.780327,186.926636 
	C60.597443,192.130264 63.108143,197.513321 65.818619,202.793839 
	C66.782608,204.671890 68.231819,206.300873 69.756744,208.404816 
	C70.053963,208.766083 69.797310,209.001266 69.797310,209.001251 
	C69.086823,208.990097 68.376328,208.978928 67.310303,208.961105 
z"/>
<path fill="#7BC6C2" opacity="1.000000" stroke="none" 
	d="
M39.728203,218.668442 
	C43.897251,219.110214 48.092747,219.939133 52.658077,220.854675 
	C53.027908,220.941299 53.006569,220.977585 52.931709,221.305359 
	C52.799866,221.856384 52.742874,222.079620 52.685886,222.302856 
	C49.862339,222.244293 46.971851,222.529465 44.240475,221.997589 
	C42.615845,221.681213 41.241520,220.079453 39.728203,218.668442 
z"/>
<path fill="#C6DEC3" opacity="1.000000" stroke="none" 
	d="
M52.830246,222.530792 
	C52.742874,222.079620 52.799866,221.856384 52.948174,221.299805 
	C53.231186,220.884552 53.422882,220.802612 53.920609,220.792572 
	C54.174881,221.388596 54.123116,221.912720 54.003544,222.825653 
	C53.615360,223.062561 53.294983,222.910660 52.830246,222.530792 
z"/>
<path fill="#0F1219" opacity="1.000000" stroke="none" 
	d="
M138.109253,143.974442 
	C133.495880,148.907135 127.667252,148.969223 120.799698,148.143692 
	C116.685654,148.577362 114.936890,147.008820 114.124565,143.857773 
	C113.524399,141.529739 112.529938,139.303345 111.653336,136.590622 
	C107.948494,121.190834 107.228981,106.011818 108.193916,90.708862 
	C108.422356,87.086082 108.707268,83.466858 109.035675,79.724182 
	C109.105148,79.602356 109.182564,79.332771 109.630264,79.251129 
	C118.128464,79.700142 126.178970,80.230797 134.229477,80.761459 
	C135.628738,86.554825 137.028000,92.348206 138.426392,98.800903 
	C138.673050,99.957062 138.920563,100.453903 139.168091,100.950737 
	C139.386353,102.715256 139.604630,104.479774 139.685852,106.824463 
	C139.750427,108.253952 139.952057,109.103271 140.108002,110.423584 
	C140.100204,117.613441 140.138092,124.332321 139.957611,131.180405 
	C139.841583,131.869156 139.943924,132.428711 139.966644,133.347992 
	C139.672211,135.148834 139.457428,136.589920 139.063934,138.309326 
	C138.797211,139.419113 138.709198,140.250595 138.459579,141.419510 
	C138.235077,142.496109 138.172165,143.235275 138.109253,143.974442 
z"/>
<path fill="#12151C" opacity="1.000000" stroke="none" 
	d="
M119.160133,55.722126 
	C122.010902,57.860909 125.838394,59.429127 127.495216,62.265373 
	C130.343826,67.141785 131.839035,72.808807 133.522949,78.475510 
	C125.448997,78.157684 117.754433,77.508324 110.095169,76.478500 
	C112.001404,68.801338 112.152328,60.742409 119.160133,55.722126 
z"/>
<path fill="#B9D6C2" opacity="1.000000" stroke="none" 
	d="
M119.186157,55.400963 
	C112.152328,60.742409 112.001404,68.801338 109.773651,76.568077 
	C109.212936,77.125854 109.009048,77.213608 108.421036,77.238632 
	C104.243057,77.169640 104.822090,74.457809 105.247253,72.249580 
	C105.985641,68.414459 107.057777,64.643608 108.234726,59.848629 
	C106.266914,60.417904 105.153336,60.740051 103.809372,61.084827 
	C103.578995,61.107452 103.119415,61.163486 103.119415,61.163486 
	C102.530861,60.978374 101.942307,60.793259 101.206955,60.334610 
	C105.688385,59.158104 108.108025,56.028393 110.295135,52.058598 
	C111.251160,50.323326 114.413376,48.698200 116.397247,48.886127 
	C119.604271,49.189930 119.955177,52.209015 119.186157,55.400963 
z"/>
<path fill="#73095E" opacity="1.000000" stroke="none" 
	d="
M108.805153,77.301353 
	C109.009048,77.213608 109.212936,77.125854 109.738342,76.948532 
	C117.754433,77.508324 125.448997,78.157684 133.535309,78.843567 
	C134.005783,79.297409 134.084518,79.714737 134.196350,80.446762 
	C126.178970,80.230797 118.128464,79.700142 109.570114,78.908478 
	C108.976562,78.198761 108.890862,77.750061 108.805153,77.301353 
z"/>
<path fill="#134C81" opacity="1.000000" stroke="none" 
	d="
M140.153671,109.952591 
	C139.952057,109.103271 139.750427,108.253952 139.758972,107.199066 
	C140.397369,107.005730 140.825638,107.017952 141.573303,107.047333 
	C141.931259,107.486038 141.969788,107.907593 141.746338,108.754471 
	C141.040802,109.437401 140.597244,109.695000 140.153671,109.952591 
z"/>
<path fill="#134C81" opacity="1.000000" stroke="none" 
	d="
M139.352814,100.802917 
	C138.920563,100.453903 138.673050,99.957062 138.582123,99.199097 
	C139.004990,99.510338 139.271271,100.082710 139.352814,100.802917 
z"/>
<path fill="#9AD6BB" opacity="1.000000" stroke="none" 
	d="
M142.306549,83.753754 
	C139.776520,76.831566 137.784515,69.556252 135.163635,62.515003 
	C133.631180,58.397873 131.094666,54.654465 128.964325,50.393936 
	C130.028793,50.656490 131.627060,50.984001 132.173508,51.923367 
	C137.860138,61.699173 142.027435,72.014542 142.306549,83.753754 
z"/>
<path fill="#9AD6BB" opacity="1.000000" stroke="none" 
	d="
M144.235443,97.788666 
	C143.657135,96.578018 143.351730,95.134476 143.118988,93.301544 
	C143.630539,94.460037 144.069443,96.007904 144.235443,97.788666 
z"/>
<path fill="#9AD6BB" opacity="1.000000" stroke="none" 
	d="
M143.205566,88.835953 
	C142.644974,88.214867 142.343872,87.405624 142.111267,86.254707 
	C142.608215,86.824615 143.036652,87.736206 143.205566,88.835953 
z"/>
<path fill="#9AD6BB" opacity="1.000000" stroke="none" 
	d="
M144.249603,124.794098 
	C144.003387,123.928047 144.007706,122.849861 144.089752,121.374191 
	C144.278366,122.178459 144.389252,123.380203 144.249603,124.794098 
z"/>
<path fill="#9AD6BB" opacity="1.000000" stroke="none" 
	d="
M126.712761,47.002068 
	C126.004402,47.057907 125.207710,46.791225 124.320129,46.219170 
	C125.027634,46.169044 125.826035,46.424294 126.712761,47.002068 
z"/>
<path fill="#0F1319" opacity="1.000000" stroke="none" 
	d="
M144.827484,150.383423 
	C145.488632,150.142761 145.882309,150.126724 146.716873,150.424927 
	C153.423203,152.818588 159.688614,154.897995 166.226624,157.197845 
	C178.804855,163.339874 191.069611,169.328171 201.188782,179.093140 
	C196.785599,186.072144 192.448380,192.668961 187.701233,199.231476 
	C182.491898,197.921677 177.692505,196.646179 172.893097,195.370667 
	C171.156464,194.643860 169.419830,193.917053 167.145447,192.865005 
	C164.037125,191.470840 161.466553,190.401932 158.895966,189.333008 
	C156.169159,187.918854 153.442352,186.504700 150.215210,184.719803 
	C146.796738,182.600540 143.878571,180.852020 140.820190,178.856583 
	C140.175110,178.379639 139.670242,178.149597 139.072327,177.618317 
	C138.306992,176.908340 137.634735,176.499603 136.836060,175.858765 
	C136.411636,175.447540 136.113647,175.268433 135.711395,174.774170 
	C133.565125,171.489761 128.870972,170.022812 130.298843,165.087982 
	C133.091522,159.752777 135.884201,154.417572 138.546967,149.330566 
	C140.926529,149.836105 142.743271,150.222076 144.827484,150.383423 
z"/>
<path fill="#12151C" opacity="1.000000" stroke="none" 
	d="
M207.898834,203.343567 
	C206.535538,203.251328 205.172256,203.159088 203.156647,202.817688 
	C201.302750,202.487488 200.101151,202.406448 198.899551,202.325409 
	C198.474472,202.258347 198.049408,202.191284 197.052383,201.857605 
	C194.518280,201.053482 192.556107,200.515945 190.793808,199.678711 
	C195.003342,193.290680 199.013000,187.202347 203.277130,181.081268 
	C203.692001,180.989304 203.852448,180.930069 204.332336,180.989471 
	C209.698105,186.392670 216.790894,190.209671 217.273819,198.789139 
	C217.299103,199.238312 218.199661,199.638214 218.692734,200.061050 
	C216.914948,200.824158 215.137161,201.587265 212.746552,202.681473 
	C210.722092,203.122894 209.310471,203.233231 207.898834,203.343567 
z"/>
<path fill="#B9D6C2" opacity="1.000000" stroke="none" 
	d="
M218.986740,200.168381 
	C218.199661,199.638214 217.299103,199.238312 217.273819,198.789139 
	C216.790894,190.209671 209.698105,186.392670 204.265854,180.577637 
	C203.923035,178.684418 203.966141,177.321655 204.018097,175.978653 
	C204.026962,175.998398 203.993484,176.024567 203.993484,176.024567 
	C204.521774,175.747253 205.050064,175.469925 205.776474,174.910278 
	C207.792175,176.003235 209.598923,177.393112 211.429642,178.750656 
	C214.893631,181.319351 218.371414,183.869431 221.673416,187.086029 
	C221.824203,189.210983 222.004074,190.726578 222.497208,192.132309 
	C223.345322,194.550140 224.388687,196.899475 225.350098,199.277588 
	C223.326981,199.610291 221.303864,199.942993 218.986740,200.168381 
z"/>
<path fill="#134C81" opacity="1.000000" stroke="none" 
	d="
M190.593948,199.978394 
	C192.556107,200.515945 194.518280,201.053482 196.729218,201.870605 
	C194.619858,202.045517 192.126785,202.396927 189.929855,201.747162 
	C184.256119,200.069107 178.713181,197.948853 173.005554,195.687927 
	C177.692505,196.646179 182.491898,197.921677 187.893982,199.418884 
	C189.195740,199.753204 189.894852,199.865799 190.593948,199.978394 
z"/>
<path fill="#69BDC4" opacity="1.000000" stroke="none" 
	d="
M225.663971,199.102936 
	C224.388687,196.899475 223.345322,194.550140 222.497208,192.132309 
	C222.004074,190.726578 221.824203,189.210983 221.647491,187.443268 
	C221.990082,187.124695 222.188553,187.107666 222.685181,187.075012 
	C225.119125,190.728683 228.359955,194.119156 225.663971,199.102936 
z"/>
<path fill="#10548E" opacity="1.000000" stroke="none" 
	d="
M140.960403,179.103516 
	C143.878571,180.852020 146.796738,182.600540 149.871918,184.643982 
	C149.990646,185.472443 149.952332,186.005997 149.852509,186.936722 
	C149.037445,187.014679 148.283905,186.695450 147.177948,185.986069 
	C146.509995,185.502380 146.194473,185.408829 145.878967,185.315277 
	C145.878967,185.315277 145.843002,185.123215 145.835434,184.826111 
	C145.651779,184.254715 145.407867,184.069977 144.809158,183.970123 
	C144.334396,184.001831 144.146561,184.038208 143.958740,184.074585 
	C143.958740,184.074585 143.953812,184.019913 143.977325,183.805298 
	C144.000854,183.590683 143.950821,183.115463 143.834717,182.807678 
	C142.799194,181.367767 141.879791,180.235641 140.960403,179.103516 
z"/>
<path fill="#134C81" opacity="1.000000" stroke="none" 
	d="
M158.988342,189.643570 
	C161.466553,190.401932 164.037125,191.470840 166.796341,192.828354 
	C164.350220,192.062683 161.715469,191.008408 158.988342,189.643570 
z"/>
<path fill="#134C81" opacity="1.000000" stroke="none" 
	d="
M208.017365,203.667816 
	C209.310471,203.233231 210.722092,203.122894 212.558044,202.993927 
	C211.935226,206.023224 210.126236,205.439789 208.017365,203.667816 
z"/>
<path fill="#134C81" opacity="1.000000" stroke="none" 
	d="
M198.997803,202.632721 
	C200.101151,202.406448 201.302750,202.487488 202.746246,202.841171 
	C201.690781,203.055893 200.393402,202.997955 198.997803,202.632721 
z"/>
<path fill="#69BDC4" opacity="1.000000" stroke="none" 
	d="
M152.192413,189.464859 
	C151.539032,189.442261 150.776932,189.109375 149.943756,188.443314 
	C150.609680,188.458282 151.346680,188.806427 152.192413,189.464859 
z"/>
<path fill="#0F1219" opacity="1.000000" stroke="none" 
	d="
M88.523895,228.928360 
	C84.731544,225.616821 81.251480,222.441116 77.491486,219.102203 
	C77.211563,218.938965 77.057678,218.543655 77.354019,218.234390 
	C96.538925,207.576935 112.821701,194.240387 125.194466,176.429688 
	C126.829987,174.075333 128.243805,171.009354 131.304550,175.269470 
	C131.464966,175.663666 131.649353,175.796555 131.917236,175.916718 
	C131.935547,175.994324 132.090347,176.032578 132.141602,176.372574 
	C134.477219,178.463776 136.761566,180.214996 139.045929,181.966202 
	C141.262665,184.403687 143.073029,187.500214 145.768097,189.161926 
	C156.156967,195.567490 166.828629,201.514404 177.491577,208.152985 
	C162.761932,220.664383 145.459229,225.930496 126.602104,227.383682 
	C132.009216,227.891220 137.291550,227.864044 142.401474,226.911758 
	C156.475098,224.289047 169.385620,218.971008 180.131302,209.165833 
	C187.404602,211.190353 194.677902,213.214874 202.368896,215.269806 
	C202.077911,216.662369 201.613449,218.242767 200.622009,219.352249 
	C192.549393,228.385956 182.646835,234.850159 171.307159,239.839767 
	C157.347870,244.821030 143.374176,247.108566 128.478821,245.211182 
	C119.684418,242.712021 111.295570,240.204361 102.550018,237.545868 
	C97.740936,234.618103 93.288551,231.841156 88.523895,228.928360 
z"/>
<path fill="#470852" opacity="1.000000" stroke="none" 
	d="
M179.857056,209.015625 
	C169.385620,218.971008 156.475098,224.289047 142.401474,226.911758 
	C137.291550,227.864044 132.009216,227.891220 126.602104,227.383682 
	C145.459229,225.930496 162.761932,220.664383 177.757477,208.394348 
	C178.478745,208.365112 179.030777,208.615265 179.857056,209.015625 
z"/>
<path fill="#1769A2" opacity="1.000000" stroke="none" 
	d="
M139.363358,181.976990 
	C136.761566,180.214996 134.477219,178.463776 132.464218,176.339569 
	C133.762268,175.674164 134.788971,175.381729 135.815659,175.089325 
	C136.113647,175.268433 136.411636,175.447540 136.893402,176.181091 
	C137.773254,177.130188 138.469330,177.524872 139.165390,177.919556 
	C139.670242,178.149597 140.175110,178.379639 140.820190,178.856598 
	C141.879791,180.235641 142.799194,181.367767 143.494278,182.766479 
	C142.816376,183.044022 142.362778,183.054977 141.909195,183.065918 
	C141.166397,182.706558 140.423584,182.347168 139.363358,181.976990 
z"/>
<path fill="#69BDC4" opacity="1.000000" stroke="none" 
	d="
M142.080505,183.314301 
	C142.362778,183.054977 142.816376,183.044022 143.610382,183.074265 
	C143.950821,183.115463 144.000854,183.590683 143.959473,183.826141 
	C143.362656,183.895294 142.807236,183.728989 142.080505,183.314301 
z"/>
<path fill="#69BDC4" opacity="1.000000" stroke="none" 
	d="
M144.034027,184.334442 
	C144.146561,184.038208 144.334396,184.001831 144.806412,184.233978 
	C145.079697,184.678070 145.068802,184.853607 145.057907,185.029160 
	C144.741714,184.884201 144.425507,184.739258 144.034027,184.334442 
z"/>
<path fill="#1769A2" opacity="1.000000" stroke="none" 
	d="
M145.288345,185.058655 
	C145.068802,184.853607 145.079697,184.678070 145.093353,184.238663 
	C145.407867,184.069977 145.651779,184.254715 145.898529,184.751526 
	C145.969208,184.974030 145.518784,185.088150 145.288345,185.058655 
z"/>
<path fill="#69BDC4" opacity="1.000000" stroke="none" 
	d="
M145.978546,185.539368 
	C146.194473,185.408829 146.509995,185.502380 146.897415,185.850937 
	C146.614059,186.143066 146.316986,186.028900 145.978546,185.539368 
z"/>
<path fill="#470852" opacity="1.000000" stroke="none" 
	d="
M53.336945,175.712494 
	C51.657024,160.791000 52.213509,146.010483 57.968960,131.854767 
	C59.760170,127.449219 62.001091,123.226517 64.988541,119.300789 
	C56.719917,136.282135 52.822514,153.828690 55.932720,173.008636 
	C55.266811,174.167816 54.436924,174.911255 53.336945,175.712494 
z"/>
<path fill="#125B95" opacity="1.000000" stroke="none" 
	d="
M140.108002,110.423584 
	C140.597244,109.695000 141.040802,109.437401 141.719086,109.071991 
	C142.201294,114.299232 142.776260,119.645218 142.598434,124.966057 
	C142.440613,129.688324 141.447037,134.382645 140.576035,139.350800 
	C139.967331,139.085190 139.604980,138.558105 139.242630,138.031006 
	C139.457428,136.589920 139.672211,135.148834 140.178528,133.211960 
	C140.372025,132.161179 140.274002,131.606186 140.175980,131.051193 
	C140.138092,124.332321 140.100204,117.613441 140.108002,110.423584 
z"/>
<path fill="#134C81" opacity="1.000000" stroke="none" 
	d="
M139.063934,138.309326 
	C139.604980,138.558105 139.967331,139.085190 140.509872,139.773315 
	C140.759995,140.128815 140.829910,140.323303 140.965439,140.821472 
	C141.031036,141.125137 141.012253,141.081909 140.724976,141.061615 
	C139.832199,141.054916 139.226685,141.068497 138.621170,141.082077 
	C138.709198,140.250595 138.797211,139.419113 139.063934,138.309326 
z"/>
<path fill="#B9D6C2" opacity="1.000000" stroke="none" 
	d="
M108.966202,79.846001 
	C108.707268,83.466858 108.422356,87.086082 108.193916,90.708862 
	C107.228981,106.011818 107.948494,121.190834 111.215645,136.569611 
	C110.253448,136.965515 109.671135,136.941360 109.088814,136.917206 
	C108.720520,135.556168 108.352226,134.195114 108.191574,132.217621 
	C107.323929,125.696342 106.274582,119.786613 105.162628,113.888687 
	C104.590469,110.853935 103.906754,107.840210 103.225372,104.528458 
	C103.194763,103.851280 103.212234,103.462631 103.485245,102.741310 
	C103.460716,96.422005 103.180649,90.435371 102.900574,84.448730 
	C102.863312,83.267265 102.826057,82.085800 103.282944,80.503799 
	C105.506783,80.017502 107.236496,79.931755 108.966202,79.846001 
z"/>
<path fill="#77ACBA" opacity="1.000000" stroke="none" 
	d="
M109.035675,79.724182 
	C107.236496,79.931755 105.506783,80.017502 103.341171,80.152313 
	C102.691208,79.961395 102.481766,79.717476 102.130951,78.900894 
	C101.956230,78.068512 101.927505,77.804840 101.898788,77.541161 
	C101.868813,77.002960 101.838837,76.464752 102.113892,75.334251 
	C102.547585,73.333412 102.676239,71.924866 102.804901,70.516327 
	C102.801262,69.983597 102.797623,69.450859 103.095901,68.364899 
	C103.529297,67.045731 103.660767,66.279800 103.792229,65.513863 
	C103.725426,65.259964 103.702911,65.002197 104.013855,64.324341 
	C104.215256,62.959476 104.127510,62.010841 104.039764,61.062202 
	C105.153336,60.740051 106.266914,60.417904 108.234726,59.848629 
	C107.057777,64.643608 105.985641,68.414459 105.247253,72.249580 
	C104.822090,74.457809 104.243057,77.169640 108.421036,77.238632 
	C108.890862,77.750061 108.976562,78.198761 109.122414,78.990120 
	C109.182564,79.332771 109.105148,79.602356 109.035675,79.724182 
z"/>
<path fill="#69BDC4" opacity="1.000000" stroke="none" 
	d="
M102.669304,84.319321 
	C103.180649,90.435371 103.460716,96.422005 103.121666,102.716888 
	C102.261002,103.009590 102.019455,102.994057 101.777916,102.978531 
	C101.538475,100.287781 101.299034,97.597038 101.326904,94.191574 
	C101.700829,90.354546 101.807449,87.232216 101.914078,84.109894 
	C102.088730,84.136566 102.263382,84.163239 102.669304,84.319321 
z"/>
<path fill="#2779AD" opacity="1.000000" stroke="none" 
	d="
M101.803802,83.969543 
	C101.807449,87.232216 101.700829,90.354546 101.307632,93.787552 
	C100.844826,90.801193 100.668587,87.504143 100.763420,83.858353 
	C101.278229,83.566750 101.497902,83.673279 101.803802,83.969543 
z"/>
<path fill="#2779AD" opacity="1.000000" stroke="none" 
	d="
M102.446381,70.652023 
	C102.676239,71.924866 102.547585,73.333412 102.132004,75.064926 
	C101.926018,73.854507 102.006943,72.321114 102.446381,70.652023 
z"/>
<path fill="#2779AD" opacity="1.000000" stroke="none" 
	d="
M103.809380,61.084827 
	C104.127510,62.010841 104.215256,62.959476 104.039261,64.131340 
	C103.438484,63.797901 103.101463,63.241238 102.686676,62.357735 
	C102.704147,61.892204 102.799393,61.753517 103.007019,61.389156 
	C103.119415,61.163486 103.578995,61.107452 103.809380,61.084827 
z"/>
<path fill="#2779AD" opacity="1.000000" stroke="none" 
	d="
M103.467819,65.622208 
	C103.660767,66.279800 103.529297,67.045731 103.117111,68.099205 
	C102.938728,67.501343 103.041061,66.615944 103.467819,65.622208 
z"/>
<path fill="#2779AD" opacity="1.000000" stroke="none" 
	d="
M101.688080,77.713242 
	C101.927505,77.804840 101.956230,78.068512 101.963272,78.730095 
	C101.786850,78.713776 101.632118,78.299553 101.688080,77.713242 
z"/>
<path fill="#B9D6C2" opacity="1.000000" stroke="none" 
	d="
M53.711014,219.155869 
	C53.682247,218.449402 53.866001,217.220215 54.407990,217.034073 
	C59.088810,215.426407 63.834164,214.006622 68.798019,212.258057 
	C69.400009,212.445587 69.764267,212.905899 70.246956,213.643951 
	C64.940132,215.653366 59.514877,217.385040 53.711014,219.155869 
z"/>
<path fill="#C6DEC3" opacity="1.000000" stroke="none" 
	d="
M201.254776,178.710968 
	C191.069611,169.328171 178.804855,163.339874 166.235992,156.851624 
	C165.978958,155.821869 165.985138,155.358780 166.355347,154.971497 
	C169.108154,156.120209 171.555710,157.080032 173.875519,158.285690 
	C183.906601,163.499146 193.900330,168.784500 203.907654,174.043686 
	C203.882431,174.487991 203.857208,174.932281 203.912735,175.700577 
	C203.993484,176.024567 204.026962,175.998398 203.748444,176.061890 
	C202.957001,176.890442 202.444077,177.655502 201.728226,178.414337 
	C201.525284,178.408112 201.254776,178.710968 201.254776,178.710968 
z"/>
<path fill="#69BDC4" opacity="1.000000" stroke="none" 
	d="
M204.099457,173.772476 
	C193.900330,168.784500 183.906601,163.499146 173.875519,158.285690 
	C171.555710,157.080032 169.108154,156.120209 166.187958,154.749313 
	C165.104431,153.972946 164.552292,153.494522 164.000168,153.016113 
	C176.900330,155.603302 188.251022,161.858063 199.611023,168.082932 
	C201.206055,168.956955 202.729996,169.960663 204.633636,170.945618 
	C204.750717,171.824997 204.520981,172.663132 204.099457,173.772476 
z"/>
<path fill="#10548E" opacity="1.000000" stroke="none" 
	d="
M135.711395,174.774170 
	C134.788971,175.381729 133.762268,175.674164 132.412964,175.999573 
	C132.090347,176.032578 131.935547,175.994324 131.842728,175.769806 
	C131.620209,175.360977 131.458023,175.212036 131.263336,175.098450 
	C128.243805,171.009354 126.829987,174.075333 125.194466,176.429688 
	C112.821701,194.240387 96.538925,207.576935 77.301697,218.028839 
	C76.303505,217.386673 75.653992,216.640778 75.186691,215.447540 
	C80.904747,211.691177 86.779724,208.830475 91.892792,204.962570 
	C98.681549,199.827103 104.875839,193.905762 111.464066,188.241013 
	C111.602577,188.159927 111.863220,187.972519 112.131004,187.913620 
	C112.587921,187.558319 112.777046,187.261932 112.983086,186.982773 
	C113.000000,187.000000 112.965324,186.965652 113.214462,186.897369 
	C113.631256,186.541336 113.798912,186.253601 113.983284,185.982925 
	C114.000000,186.000000 113.965614,185.966736 114.213638,185.896500 
	C114.627609,185.537888 114.793556,185.249496 114.979752,184.980560 
	C115.000000,185.000000 114.960709,184.959808 115.207321,184.888397 
	C115.619316,184.529846 115.784691,184.242676 115.974731,183.977448 
	C115.999390,183.999390 115.954704,183.950623 116.198792,183.877197 
	C116.603737,183.516159 116.764603,183.228561 116.959915,182.966537 
	C116.994354,182.992126 116.938950,182.926437 117.179550,182.850891 
	C117.571869,182.488556 117.723587,182.201797 117.931396,181.938095 
	C117.987488,181.961151 117.890305,181.888367 118.172653,181.767914 
	C118.675056,181.098694 118.895103,180.549942 119.259583,179.701355 
	C120.252388,177.891159 121.100761,176.380798 121.949127,174.870438 
	C123.866692,171.777908 125.784248,168.685379 127.928322,165.309280 
	C128.629166,165.030533 129.103485,165.035355 129.938324,165.064087 
	C128.870972,170.022812 133.565125,171.489761 135.711395,174.774170 
z"/>
<path fill="#B9D6C2" opacity="1.000000" stroke="none" 
	d="
M69.869690,209.330795 
	C69.797310,209.001266 70.053963,208.766083 70.070099,208.594452 
	C83.920914,203.358643 96.358208,195.814011 108.674866,187.057526 
	C109.515434,187.413330 109.769363,187.725571 109.725327,188.187347 
	C103.825951,192.652496 98.409477,197.239899 92.573334,201.210464 
	C86.201958,205.545181 79.441978,209.308701 72.851395,213.321213 
	C71.881622,212.100906 70.911850,210.880615 69.869690,209.330795 
z"/>
<path fill="#4FABC5" opacity="1.000000" stroke="none" 
	d="
M72.983734,213.567230 
	C79.441978,209.308701 86.201958,205.545181 92.573334,201.210464 
	C98.409477,197.239899 103.825951,192.652496 110.053795,188.244461 
	C110.895340,188.208725 111.110443,188.265411 111.325546,188.322083 
	C104.875839,193.905762 98.681549,199.827103 91.892792,204.962570 
	C86.779724,208.830475 80.904747,211.691177 75.033211,215.194427 
	C74.170364,214.863510 73.643219,214.338364 72.983734,213.567230 
z"/>
<path fill="#12151C" opacity="1.000000" stroke="none" 
	d="
M128.962296,160.618500 
	C127.915344,161.001556 126.930672,161.002136 125.579147,161.004730 
	C123.866333,158.364395 122.520370,155.722061 121.068367,152.871552 
	C123.768799,152.514069 127.083809,152.075226 131.307922,151.516037 
	C130.568832,154.338593 129.796707,157.287308 128.962296,160.618500 
z"/>
<path fill="#69BDC4" opacity="1.000000" stroke="none" 
	d="
M103.273453,104.816986 
	C103.906754,107.840210 104.590469,110.853935 105.162628,113.888687 
	C106.274582,119.786613 107.323929,125.696342 108.161026,131.856750 
	C106.260529,126.166168 104.494843,120.246063 102.987038,114.260994 
	C102.388359,111.884583 102.361519,109.364113 102.289902,106.334610 
	C102.761475,105.445656 103.017456,105.131317 103.273453,104.816986 
z"/>
<path fill="#77ACBA" opacity="1.000000" stroke="none" 
	d="
M109.048203,137.288239 
	C109.671135,136.941360 110.253448,136.965515 111.273453,137.010681 
	C112.529938,139.303345 113.524399,141.529739 114.124565,143.857773 
	C114.936890,147.008820 116.685654,148.577362 120.393005,148.234650 
	C119.270760,149.127335 117.750519,149.980209 115.602173,151.185471 
	C113.580002,147.037781 111.293800,142.348526 109.048203,137.288239 
z"/>
<path fill="#125B95" opacity="1.000000" stroke="none" 
	d="
M138.459579,141.419510 
	C139.226685,141.068497 139.832199,141.054916 140.746170,141.058075 
	C140.978119,141.983810 140.901611,142.892822 140.556839,144.024628 
	C139.805466,144.169144 139.322342,144.090820 138.474243,143.993469 
	C138.172165,143.235275 138.235077,142.496109 138.459579,141.419510 
z"/>
<path fill="#2779AD" opacity="1.000000" stroke="none" 
	d="
M103.225372,104.528458 
	C103.017456,105.131317 102.761475,105.445656 102.251732,105.925636 
	C101.776878,105.194191 101.555779,104.297104 101.556297,103.189270 
	C102.019455,102.994057 102.261002,103.009590 102.866119,103.049545 
	C103.212234,103.462631 103.194763,103.851280 103.225372,104.528458 
z"/>
<path fill="#125B95" opacity="1.000000" stroke="none" 
	d="
M135.091644,148.704407 
	C134.539383,148.737610 134.147781,148.610382 133.756180,148.483139 
	C133.863358,148.376877 133.993683,148.164703 134.073807,148.182205 
	C134.473892,148.269684 134.860779,148.417435 135.091644,148.704407 
z"/>
<path fill="#12151C" opacity="1.000000" stroke="none" 
	d="
M125.207153,162.296448 
	C125.578178,162.280411 125.630356,162.536179 125.281815,162.918457 
	C125.151405,163.006485 125.158615,162.529816 125.207153,162.296448 
z"/>
<path fill="#9AD6BB" opacity="1.000000" stroke="none" 
	d="
M163.998291,153.006989 
	C164.552292,153.494522 165.104431,153.972946 165.823929,154.673523 
	C165.985138,155.358780 165.978958,155.821869 165.963409,156.631165 
	C159.688614,154.897995 153.423203,152.818588 147.010773,150.397186 
	C151.277954,150.684280 155.692169,151.313370 160.741943,152.270355 
	C162.245453,152.734467 163.113373,152.870682 163.981293,153.006897 
	C163.981293,153.006882 163.996429,152.997849 163.998291,153.006989 
z"/>
<path fill="#69BDC4" opacity="1.000000" stroke="none" 
	d="
M163.772263,152.741486 
	C163.113373,152.870682 162.245453,152.734467 161.151642,152.349701 
	C161.804916,152.226135 162.684082,152.351105 163.772263,152.741486 
z"/>
<path fill="#9AD6BB" opacity="1.000000" stroke="none" 
	d="
M111.464058,188.240997 
	C111.110443,188.265411 110.895340,188.208725 110.351761,188.094910 
	C109.769363,187.725571 109.515434,187.413330 108.995697,186.950867 
	C112.926819,182.902481 117.123764,179.004349 121.634918,174.988312 
	C121.100761,176.380798 120.252388,177.891159 119.001648,179.853424 
	C118.362953,180.833008 118.126625,181.360687 117.890305,181.888367 
	C117.890305,181.888367 117.987488,181.961151 117.704849,182.030975 
	C117.137474,182.303635 116.976395,182.578842 116.938950,182.926437 
	C116.938950,182.926437 116.994354,182.992126 116.724609,183.052582 
	C116.288147,183.392242 116.121429,183.671432 115.954712,183.950623 
	C115.954704,183.950623 115.999390,183.999390 115.735168,184.058792 
	C115.300873,184.398743 115.130791,184.679276 114.960709,184.959808 
	C114.960709,184.959808 115.000000,185.000000 114.738571,185.060745 
	C114.306641,185.403244 114.136131,185.684982 113.965614,185.966736 
	C113.965614,185.966736 114.000000,186.000000 113.740738,186.060638 
	C113.309433,186.402756 113.137383,186.684204 112.965332,186.965652 
	C112.965324,186.965652 113.000000,187.000000 112.732170,187.063293 
	C112.263962,187.408569 112.063591,187.690536 111.863220,187.972519 
	C111.863220,187.972519 111.602577,188.159927 111.464058,188.240997 
z"/>
<path fill="#134C81" opacity="1.000000" stroke="none" 
	d="
M139.957611,131.180405 
	C140.274002,131.606186 140.372025,132.161179 140.258148,132.852203 
	C139.943924,132.428711 139.841583,131.869156 139.957611,131.180405 
z"/>
<path fill="#73095E" opacity="1.000000" stroke="none" 
	d="
M201.188782,179.093140 
	C201.254776,178.710968 201.525284,178.408112 201.810196,178.770935 
	C202.404297,179.793854 202.713486,180.453918 203.022675,181.113998 
	C199.013000,187.202347 195.003342,193.290680 190.793808,199.678711 
	C189.894852,199.865799 189.195740,199.753204 188.303909,199.453186 
	C192.448380,192.668961 196.785599,186.072144 201.188782,179.093140 
z"/>
<path fill="#10548E" opacity="1.000000" stroke="none" 
	d="
M139.072327,177.618317 
	C138.469330,177.524872 137.773254,177.130188 137.019836,176.413177 
	C137.634735,176.499603 138.306992,176.908340 139.072327,177.618317 
z"/>
<path fill="#99286C" opacity="1.000000" stroke="none" 
	d="
M203.277130,181.081268 
	C202.713486,180.453918 202.404297,179.793854 202.013138,178.777161 
	C202.444077,177.655502 202.957001,176.890442 203.739563,176.042145 
	C203.966141,177.321655 203.923035,178.684418 203.946426,180.459015 
	C203.852448,180.930069 203.692001,180.989304 203.277130,181.081268 
z"/>
<path fill="#1769A2" opacity="1.000000" stroke="none" 
	d="
M131.304550,175.269470 
	C131.458023,175.212036 131.620209,175.360977 131.824432,175.692215 
	C131.649353,175.796555 131.464966,175.663666 131.304550,175.269470 
z"/>
<path fill="#4FABC5" opacity="1.000000" stroke="none" 
	d="
M118.172653,181.767914 
	C118.126625,181.360687 118.362953,180.833008 118.857208,180.153259 
	C118.895103,180.549942 118.675056,181.098694 118.172653,181.767914 
z"/>
<path fill="#4FABC5" opacity="1.000000" stroke="none" 
	d="
M115.207321,184.888397 
	C115.130791,184.679276 115.300873,184.398743 115.710510,184.036850 
	C115.784691,184.242676 115.619316,184.529846 115.207321,184.888397 
z"/>
<path fill="#4FABC5" opacity="1.000000" stroke="none" 
	d="
M117.179550,182.850891 
	C116.976395,182.578842 117.137474,182.303635 117.648758,182.007935 
	C117.723587,182.201797 117.571869,182.488556 117.179550,182.850891 
z"/>
<path fill="#4FABC5" opacity="1.000000" stroke="none" 
	d="
M116.198792,183.877197 
	C116.121429,183.671432 116.288147,183.392242 116.690170,183.026993 
	C116.764603,183.228561 116.603737,183.516159 116.198792,183.877197 
z"/>
<path fill="#4FABC5" opacity="1.000000" stroke="none" 
	d="
M114.213638,185.896500 
	C114.136131,185.684982 114.306641,185.403244 114.718323,185.041306 
	C114.793556,185.249496 114.627609,185.537888 114.213638,185.896500 
z"/>
<path fill="#4FABC5" opacity="1.000000" stroke="none" 
	d="
M113.214462,186.897369 
	C113.137383,186.684204 113.309433,186.402756 113.724022,186.043579 
	C113.798912,186.253601 113.631256,186.541336 113.214462,186.897369 
z"/>
<path fill="#4FABC5" opacity="1.000000" stroke="none" 
	d="
M112.131004,187.913620 
	C112.063591,187.690536 112.263962,187.408569 112.715256,187.046066 
	C112.777046,187.261932 112.587921,187.558319 112.131004,187.913620 
z"/>
</svg>